<?xml version="1.0" encoding="UTF-8"?>
<svg width="190px" height="38px" viewBox="0 0 190 38" version="1.1" xmlns="http://www.w3.org/2000/svg" xmlns:xlink="http://www.w3.org/1999/xlink">
    <!-- Generator: Sketch 44.1 (41455) - http://www.bohemiancoding.com/sketch -->
    <title>moon</title>
    <desc>Created with Sketch.</desc>
    <defs></defs>
    <g id="Page-1" stroke="none" stroke-width="1" fill="none" fill-rule="evenodd">
        <g id="Artboard" transform="translate(-696.000000, -519.000000)" fill-rule="nonzero" fill="#BCBCBC">
            <g id="Group-2" transform="translate(696.000000, 376.000000)">
                <g id="Group" transform="translate(0.000000, 152.000000)">
                    <path d="M55.9,22.7 C56.7,22.5 57.6,22.4 58.4,22.2 C60.4,21.7 62.4,20.9 64,19.6 C64.8,19 65.5,18.2 66.1,17.4 C67.2,16 68.1,14.5 68.6,12.7 C68.8,12.1 69,11.4 69,10.8 C69,10.4 69.2,10 69.2,9.5 C69.2,7.5 68.5,5.6 67.3,4 C67,3.6 66.7,3.2 66.3,2.9 C65.5,2.1 64.6,1.7 63.5,1.5 C62.8,1.4 62.1,1.6 61.5,1.9 C60.1,2.5 58.9,3.4 57.8,4.5 C56.4,5.9 55.3,7.5 54.5,9.3 C53.7,10.9 53.2,12.5 53,14.3 C52.8,15.7 52.6,17.1 52.6,18.5 C52.6,20.1 52.4,21.6 52.3,23.3 C51.5,23.3 50.7,23.3 49.9,23.3 C49.1,23.3 48.3,23.3 47.4,23.3 C47.5,22.8 47.5,22.3 47.6,21.8 C47.8,20.8 48,19.9 48.1,18.9 C48.2,18.2 48.3,17.4 48.3,16.6 C48.3,14.1 48.3,11.6 48.3,9.1 C48.3,7.8 48,6.6 47.5,5.5 C47.3,5 47.1,4.5 46.8,4.1 C46.2,3 45.2,2.3 44.1,2 C43.3,1.7 42.6,2 41.9,2.4 C40.9,3 40.1,3.9 39.4,4.8 C37.8,7 36.7,9.4 36.2,12.1 C35.9,13.5 35.7,14.8 35.7,16.2 C35.7,18.2 35.7,20.2 35.7,22.2 C35.7,22.5 35.7,22.9 35.7,23.2 C34.9,23.4 32.1,23.4 30.5,23.3 C30.7,22.2 30.8,21.1 31,20 C31.1,19.4 31.2,18.9 31.2,18.3 C31.3,17.5 31.4,16.8 31.4,16 C31.5,14.5 31.7,13 31.8,11.6 C31.8,11.1 31.8,10.7 31.8,10.2 C31.8,9 31.8,7.8 31.8,6.6 C31.8,4.8 31.4,3 30.7,1.3 C30.7,1.2 30.6,1.1 30.6,0.9 C30.6,0.8 30.6,0.8 30.7,0.6 C32.4,0.6 34.2,0.6 36.1,0.6 C36.4,1 36.2,1.4 36.2,1.9 C36.2,2.3 36.2,2.8 36.2,3.2 C36.7,3.2 36.9,3 37.1,2.8 C38.3,1.7 39.9,1.3 41.4,1.1 C42.8,0.9 44.2,0.7 45.6,0.5 C45.9,0.5 46.3,0.5 46.6,0.5 C47,0.5 47.4,0.4 47.9,0.3 C48.7,0.2 49.4,0.3 50.1,0.6 C50.4,0.7 50.7,1 50.9,1.3 C51.4,2.2 51.8,3.1 52.3,4 C52.7,3.8 53.1,3.5 53.4,3.2 C54.5,2.1 55.8,1.3 57.4,1 C58.1,0.9 58.8,0.7 59.5,0.7 C60.3,0.6 61.1,0.6 61.9,0.5 C62.7,0.4 63.4,0.4 64.2,0.4 C65.7,0.3 67.3,0.2 68.9,0.5 C70.8,0.9 72.2,2 73.1,3.7 C73.6,4.6 74,5.5 74.2,6.5 C74.2,6.8 74.3,7.1 74.3,7.4 C74.3,8.1 74.3,8.8 74.3,9.5 C74.3,10.7 74,11.9 73.6,13.1 C73,14.7 72.2,16.3 71.1,17.7 C70,19 68.9,20.3 67.3,21 C67,21.2 66.6,21.4 66.1,21.7 C68.9,21.4 71.6,21.1 74.4,20.7 C74.1,21.7 73.4,22.4 72.9,23.3 C72.7,23.3 72.5,23.3 72.3,23.3 C67.1,23.3 61.9,23.3 56.7,23.3 C56.4,23.3 56.1,23.3 55.8,23.3 C56,23.1 55.8,23 55.9,22.7 Z" id="Shape"></path>
                    <path d="M158.9,20.5 C158.5,21.4 158,22.3 157.6,23.2 C157.4,23.2 157.2,23.3 157,23.3 C151.9,23.3 146.9,23.3 141.8,23.3 C141.5,23.3 141.3,23.3 141,23.3 C140.9,23.3 140.7,23.2 140.5,23 C141.3,22.8 142,22.6 142.6,22.5 C145,22.1 147,21.1 148.9,19.6 C151.5,17.6 153.1,15 153.8,11.8 C154,10.7 154.3,9.5 153.9,8.4 C153.8,7.9 153.8,7.4 153.7,6.9 C153.5,5.5 152.8,4.4 151.9,3.4 C151.1,2.5 150,1.9 148.8,1.6 C146.8,1.2 145.1,1.9 143.5,2.9 C142.1,3.8 141.2,5.2 140.3,6.6 C138.8,9 137.9,11.6 137.3,14.4 C137.1,15.1 137.2,15.8 137.1,16.6 C136.8,18.8 136.9,21 136.9,23.2 C136.1,23.3 135.2,23.2 134.4,23.2 C133.6,23.2 132.8,23.2 132,23.2 C131.8,22.8 131.8,22.4 131.9,22.1 C132,21.1 132.2,20 132.3,19 C132.4,18.2 132.6,17.4 132.7,16.7 C132.8,15.9 132.9,15.1 132.9,14.3 C133,11.9 133.1,9.5 133.1,7.1 C133.1,5.6 133.1,4.1 132.6,2.6 C132.4,2.1 132.2,1.6 132.1,1.1 C132.1,1 132.1,0.8 132,0.7 C132.9,0.5 133.9,0.6 134.8,0.6 C135.7,0.6 136.6,0.6 137.6,0.6 C137.7,1.5 137.9,2.3 138,3.2 C138.7,3 139.2,2.7 139.7,2.4 C141.5,1.3 143.4,0.7 145.5,0.5 C147.9,0.3 150.3,0.3 152.8,0.3 C155.1,0.3 156.8,1.4 158,3.4 C158.7,4.6 159.1,5.8 159.2,7.2 C159.2,7.9 159.4,8.5 159.3,9.2 C159.1,10.7 158.9,12.3 158.4,13.7 C158,14.9 157.5,16.1 156.7,17.2 C155.9,18.3 154.8,19.3 153.6,20 C153.1,20.3 152.5,20.6 152,20.9 C151.9,20.9 151.9,21 151.9,21.1 C154.3,21 156.6,20.7 158.9,20.1 C158.8,20.4 158.9,20.4 158.9,20.5 Z" id="Shape"></path>
                    <path d="M89.7,0.6 C91.4,0.6 92.6,0.6 93.9,0.6 C95.8,0.7 97.5,1.3 99,2.6 C100.7,4.1 101.5,6 102,8.1 C102.3,9.7 102.3,11.3 102.1,12.9 C101.9,14.9 101.4,16.8 100.4,18.5 C99.2,20.6 97.6,22.2 95.1,22.9 C94.9,22.9 94.8,23 94.6,23 C93.4,23.1 92.2,23.2 90.9,23.2 C89.7,23.2 88.5,23.2 87.3,23.2 C86.9,23.2 86.5,23.3 86,23.3 C85.5,23.3 85.1,23.3 84.6,23.3 C84.4,23.3 84.1,23.2 83.9,23.2 C82.1,23.1 80.6,22.4 79.3,21.2 C77.8,19.9 77,18.1 76.4,16.2 C76.2,15.6 76.2,14.9 76.2,14.2 C76.1,12.7 76.1,11.2 76.4,9.7 C77,7.1 77.8,4.7 79.9,2.9 C81.3,1.7 82.9,0.9 84.8,0.7 C86.6,0.5 88.3,0.7 89.7,0.6 Z M97.2,10.8 C97.2,10.2 97.3,9.3 97.2,8.6 C96.9,7.2 96.4,5.9 95.4,4.8 C93.8,2.8 91.9,1.4 89.1,1.7 C88.2,1.8 87.4,2.1 86.6,2.5 C85.6,3 84.8,3.8 84,4.7 C82.4,6.5 81.4,8.6 81.1,11 C80.9,13 81,14.9 81.8,16.8 C82.6,18.5 83.6,20 85.2,21 C87.8,22.7 90.6,22.5 92.9,20.8 C94.4,19.7 95.5,18.1 96.2,16.4 C96.9,14.6 97.5,12.8 97.2,10.8 Z" id="Shape"></path>
                    <path d="M117.8,0.6 C119,0.6 120.3,0.6 121.5,0.6 C123.6,0.6 125.4,1.4 126.9,2.7 C128.1,3.7 128.8,5.1 129.4,6.5 C129.8,7.6 130,8.7 130,9.9 C130,10.5 130,11.1 130,11.7 C130,15 129,17.9 126.9,20.4 C125.6,21.9 123.9,22.9 121.8,23.1 C119.9,23.3 118.1,23.2 116.2,23.3 C115.3,23.3 114.4,23.4 113.5,23.4 C110.2,23.5 107.4,22.4 105.7,19.4 C105.1,18.3 104.5,17.1 104.4,15.9 C104.1,14.3 104,12.6 104.3,10.9 C104.6,9 105.2,7.3 106,5.6 C106.7,4.1 107.9,2.9 109.4,2.1 C111,1.2 112.7,0.7 114.6,0.7 C115.5,0.6 116.7,0.6 117.8,0.6 L117.8,0.6 Z M108.8,12.8 C108.9,13.2 108.9,13.9 109,14.6 C109.5,17.1 110.7,19.2 112.8,20.7 C114.3,21.8 116,22.3 117.8,22 C119.5,21.7 120.9,20.7 122,19.4 C123,18.3 123.7,17.1 124.2,15.7 C124.7,14.2 125.1,12.8 125.1,11.2 C125.1,10.5 125.1,9.8 124.9,9 C124.3,6.2 123,3.9 120.5,2.4 C119,1.5 117.5,1.3 115.8,1.8 C114.6,2.2 113.6,2.8 112.7,3.6 C110.2,5.9 108.9,8.9 108.8,12.8 Z" id="Shape"></path>
                </g>
            </g>
        </g>
    </g>
</svg>