<?xml version="1.0" encoding="UTF-8"?>
<svg width="190px" height="38px" viewBox="0 0 190 38" version="1.1" xmlns="http://www.w3.org/2000/svg" xmlns:xlink="http://www.w3.org/1999/xlink">
    <!-- Generator: Sketch 44.1 (41455) - http://www.bohemiancoding.com/sketch -->
    <title>mother</title>
    <desc>Created with Sketch.</desc>
    <defs></defs>
    <g id="Page-1" stroke="none" stroke-width="1" fill="none" fill-rule="evenodd">
        <g id="Artboard" transform="translate(-696.000000, -557.000000)" fill-rule="nonzero" fill="#BCBCBC">
            <g id="Group-2" transform="translate(696.000000, 376.000000)">
                <g id="Group" transform="translate(0.000000, 152.000000)">
                    <path d="M28,42.6 C28.4,42.3 28.7,42 29,41.8 C30.1,40.7 31.4,39.9 32.9,39.5 C33.6,39.3 34.3,39.2 35,39.2 C36.2,39.1 37.4,39.1 38.6,39 C40.2,38.8 41.8,38.8 43.5,38.9 C44.8,38.9 46.1,39.2 47.1,40.1 C48.3,41.1 49.2,42.3 49.6,43.8 C50.1,45.4 50.2,47 50,48.8 C49.7,51 48.9,52.9 47.8,54.8 C47,56.2 45.9,57.4 44.7,58.5 C44.3,58.8 43.9,59.1 43.5,59.4 C43.1,59.6 42.8,59.8 42.3,60.1 C43,60.1 43.5,60.2 44.1,60.1 C45.3,60 46.5,59.7 47.7,59.6 C48.5,59.5 49.3,59.5 50.1,59.5 C50.1,60.1 49.6,60.4 49.4,60.8 C49.2,61.2 48.9,61.6 48.6,62 C42.8,61.9 37,62.2 31,61.8 C31.3,61.6 31.4,61.4 31.5,61.4 C33.6,61.1 35.6,60.5 37.5,59.5 C39,58.7 40.3,57.6 41.4,56.3 C42.7,54.7 43.6,52.9 44.2,50.9 C44.8,48.9 44.6,46.9 43.9,45 C43.3,43.5 42.4,42.2 41.1,41.2 C39.9,40.3 38.6,40 37.2,40.5 C36.2,40.9 35.2,41.5 34.3,42.3 C32.2,44.1 30.7,46.2 29.6,48.7 C28.9,50.2 28.5,51.7 28.3,53.3 C28,55 27.9,56.7 27.9,58.4 C27.9,59.6 27.7,60.7 27.7,61.9 C26.9,62.1 26.1,61.9 25.3,62 C24.5,62 23.7,62 22.8,62 C22.9,61.2 23,60.4 23.1,59.7 C23.2,59.1 23.4,58.4 23.4,57.8 C23.5,56.7 23.5,55.7 23.6,54.6 C23.9,52.5 23.8,50.4 23.7,48.3 C23.6,46 23.1,43.9 21.5,42.1 C20.7,41.2 19.8,40.5 18.5,40.7 C17.7,40.8 17,41.1 16.5,41.6 C14.1,43.8 12.6,46.5 11.7,49.7 C11.4,50.9 11.2,52.2 11.1,53.5 C10.8,56.2 11,58.9 10.9,61.6 C10.9,61.7 10.9,61.9 10.9,62.1 C10.1,62.2 9.3,62.1 8.4,62.1 C7.6,62.1 6.8,62.1 5.9,62.1 C5.9,61.8 5.8,61.6 5.9,61.3 C6.1,60.2 6.3,59 6.5,57.9 C6.6,57.3 6.7,56.7 6.7,56 C6.8,55 6.8,54 6.9,53 C7.2,50.3 7.1,47.6 7.1,44.9 C7.1,43.2 6.8,41.6 6.1,40.1 C6,40 6,39.8 5.9,39.6 C6,39.5 6.1,39.4 6.1,39.4 C7.8,39.3 9.5,39.2 11.3,39.2 C11.4,40.1 11.5,41 11.6,42 C12.3,41.6 12.9,41.2 13.4,40.9 C14.7,40.1 16.2,39.9 17.6,39.7 C19.2,39.5 20.8,39.3 22.4,39.1 C23.1,39 23.9,39 24.6,39.1 C25.5,39.2 26.2,39.8 26.6,40.6 C27.3,41 27.6,41.8 28,42.6 Z" id="Shape"></path>
                    <path d="M119.3,60.3 C122.5,59.8 125.7,59.3 129,58.8 C129.1,59.5 128.5,59.8 128.4,60.3 C128.2,60.8 127.9,61.2 127.6,61.8 C121.8,61.7 116,62 110.2,61.4 C110.4,61.3 110.6,61.2 110.8,61.2 C111.7,61 112.5,60.9 113.4,60.7 C115.2,60.2 116.7,59.2 118.1,58 C120,56.4 121.4,54.4 122.4,52.1 C122.8,51.1 123.1,50.1 123.3,49.1 C123.7,47 123.1,45.1 122.2,43.3 C121.7,42.4 121,41.6 120.1,41 C118.7,40.1 117.3,40 115.9,40.7 C114.3,41.4 113,42.6 111.9,44 C110.9,45.2 110,46.5 109.3,47.9 C108.5,49.4 108.1,51 107.8,52.7 C107.6,53.9 107.6,55.2 107.4,56.4 C107.2,57.5 107.3,58.6 107.2,59.8 C107.2,60.5 107.1,61.2 107,61.9 C104.8,62.1 102.7,62 102.1,61.8 C102.3,60.5 102.4,59.2 102.6,57.9 C102.8,56.3 102.9,54.7 103,53.1 C103.1,51.8 103.1,50.4 103.2,49.1 C103.5,45.3 103.3,41.6 103.4,37.8 C103.5,35.3 103.1,32.9 102.2,30.5 C102.6,30.4 102.9,30.3 103.3,30.2 C104.8,30.1 106.2,30 107.7,30 C107.9,30 108.2,30 108.5,30 C108.4,30.5 108.4,30.9 108.3,31.3 C108.3,31.7 108.2,32.2 108.2,32.6 C108.2,32.9 108.1,33.2 108.1,33.5 C108.1,34.4 108.1,35.4 108.1,36.3 C108.1,37.9 108,39.5 107.9,41.2 C107.9,41.7 108,42.2 108.1,42.8 C108.5,42.5 108.9,42.3 109.2,42.1 C110.5,41.2 111.9,40.5 113.5,40 C114.3,39.8 115.2,39.6 116,39.5 C117.2,39.3 118.3,39 119.5,38.9 C121,38.8 122.5,38.5 124,39 C125.5,39.6 126.7,40.5 127.5,41.9 C128,42.8 128.5,43.7 128.6,44.7 C128.8,45.9 129.1,47.1 128.8,48.4 C128.6,49.1 128.7,49.8 128.5,50.5 C128,52.4 127.3,54.2 126,55.7 C124.8,57.1 123.4,58.4 121.8,59.2 C121.1,59.6 120.3,60 119.6,60.3 C119.3,60.2 119.3,60.3 119.3,60.3 Z" id="Shape"></path>
                    <path d="M162.4,61.7 C160.7,61.7 159,61.7 157.3,61.7 C157.4,60.9 157.5,60.1 157.6,59.3 C157.7,58.6 157.9,57.8 157.9,57.1 C158,55.1 158.2,53.1 158.1,51.1 C158.1,49.7 158.1,48.3 158.1,46.9 C158.1,45.9 157.8,44.8 157.8,43.8 C157.7,42.3 157.3,40.9 156.8,39.5 C158.4,39 160.1,39.4 161.8,39.1 C162.3,39.8 162.1,40.6 162.4,41.4 C162.8,41.2 163.1,41 163.5,40.8 C165.1,39.9 166.7,39.2 168.5,39 C169.8,38.9 171.1,38.7 172.3,38.6 C173.3,38.5 174.3,38.5 175.3,38.4 C176.7,38.4 177.9,39 178.7,40.1 C179.5,41.2 179.9,42.6 180,44 C180.1,46.4 179.2,48.4 177.8,50.3 C176.6,51.9 174.9,52.8 173.1,53.6 C173,53.7 172.9,53.7 172.7,53.8 C172.6,53.8 172.5,53.9 172.4,54 C172.5,54.1 172.6,54.2 172.8,54.3 C173.9,54.8 174.8,55.6 175.7,56.4 C176.9,57.3 178,58.3 179.3,59 C180.2,59.5 181.1,59.7 182,59.8 C182.6,59.9 183.2,60 183.8,60.1 C183.8,60.4 183.8,60.6 183.9,60.9 C183.7,61 183.4,61.2 183.2,61.2 C182.4,61.3 181.6,61.4 180.7,61.4 C179.2,61.5 177.7,61.5 176.2,61.6 C175.1,61.7 174.3,61.3 173.5,60.6 C172.2,59.5 170.9,58.3 169.6,57.3 C168.3,56.3 166.9,55.6 165.2,55.4 C164.3,55.3 163.3,55.1 162.3,55 C162.2,56.2 162.3,57.3 162.4,58.4 C162.4,59.4 162.4,60.5 162.4,61.7 Z M162.3,53.9 C163.4,53.8 164.5,53.7 165.5,53.6 C166.6,53.5 167.7,53.2 168.7,52.7 C170.4,52 171.9,50.8 173.2,49.5 C173.9,48.8 174.5,48 174.8,47 C175.4,45.7 175.6,44.4 175.1,43 C174.8,41.9 174.1,41.1 173.2,40.5 C172.6,40 171.8,39.7 171,39.8 C170,39.8 169.1,40.2 168.2,40.8 C167.1,41.5 166.2,42.5 165.4,43.6 C163.4,46.2 162.5,49.1 162.3,52.3 C162.4,52.7 162.3,53.2 162.3,53.9 Z" id="Shape"></path>
                    <path d="M147.8,50.5 C148.2,50.5 148.4,50.6 148.6,50.6 C150,50.3 151.4,50.5 152.9,50.4 C153.5,50.4 154.1,50.3 154.8,50.2 C154.9,50.2 155.1,50.2 155.2,50.2 C155.2,50.3 155.3,50.5 155.2,50.6 C154.8,51.3 154.3,51.9 153.8,52.6 C153.3,52.5 152.8,52.5 152.3,52.4 C152.1,52.4 151.8,52.4 151.6,52.4 C146.3,52.4 140.9,52.4 135.6,52.4 C135.4,52.4 135.2,52.4 134.9,52.5 C135.3,55.5 136.5,58 139.2,59.6 C140.2,60.2 141.2,60.5 142.3,60.4 C142.7,60.4 143,60.4 143.4,60.4 C144.5,60.5 145.5,60.1 146.5,59.6 C148.5,58.6 150.4,57.4 152.2,56 C152.4,55.8 152.7,55.7 153.1,55.4 C153,55.7 152.9,55.9 152.9,56 C152,57.7 151.2,59.5 150.1,61.1 C149.9,61.4 149.7,61.7 149.3,61.7 C148.8,61.7 148.4,61.8 147.9,61.9 C144.4,61.9 140.8,61.9 137.3,61.9 C135.8,61.9 134.6,61.3 133.5,60.3 C132,59 131.2,57.3 130.9,55.4 C130.7,54.1 130.7,52.8 130.7,51.5 C130.6,49.1 131.3,46.8 132.3,44.6 C133.3,42.5 134.8,40.8 136.8,39.8 C137.9,39.2 139,38.9 140.3,38.8 C141.8,38.6 143.3,38.7 144.9,38.7 C146.2,38.7 147.6,38.8 148.9,38.9 C151.6,39.2 153.2,41.2 153.3,43.6 C153.4,44.4 153.2,45.2 152.9,46 C152.5,47.2 151.8,48 150.8,48.6 C150.1,49 149.4,49.4 148.6,49.8 C148.3,50.1 148.1,50.2 147.8,50.5 Z M134.9,51.4 C136.2,51.3 137.4,51.3 138.5,51.1 C140,50.8 141.5,50.5 142.9,49.9 C144.3,49.3 145.6,48.5 146.6,47.3 C147.8,45.8 148.2,44.1 147.6,42.3 C147.3,41.4 146.7,40.6 145.8,40.2 C144.6,39.8 143.3,39.7 142.2,40.4 C141.4,40.9 140.7,41.4 139.9,42 C138,43.4 136.6,45.3 135.7,47.4 C135.2,48.7 134.8,50 134.9,51.4 Z" id="Shape"></path>
                    <path d="M65.2,39.2 C66.6,39.2 68,39.2 69.4,39.2 C70.6,39.2 71.7,39.4 72.7,40 C74.4,41 75.7,42.4 76.5,44.2 C77.5,46.4 77.6,48.7 77.4,51 C77.3,53.1 76.8,55.2 75.6,57 C74.5,58.9 73,60.4 70.9,61.2 C70.5,61.4 70.1,61.5 69.7,61.5 C68.8,61.6 68,61.7 67.1,61.7 C64.6,61.7 62.1,61.7 59.6,61.7 C57.7,61.7 56.1,61 54.7,59.7 C52.9,58 52,55.9 51.6,53.5 C51.4,52.6 51.4,51.7 51.4,50.7 C51.6,48 52.2,45.5 53.6,43.2 C55,41 57,39.7 59.6,39.2 C60.2,39.1 60.8,39 61.5,39 C62.8,39.2 64,39.2 65.2,39.2 C65.2,39.2 65.2,39.2 65.2,39.2 Z M56.2,51.4 C56.1,52.4 56.5,53.8 57.1,55.1 C57.9,57.1 59.2,58.8 61.2,59.7 C61.9,60.1 62.7,60.2 63.6,60.4 C65,60.6 66.3,60.4 67.5,59.6 C68.6,58.9 69.5,58 70.2,57 C71.6,55.1 72.4,52.9 72.7,50.5 C72.9,48.9 72.7,47.3 72.1,45.7 C71.4,43.8 70.3,42.2 68.6,41 C67.6,40.3 66.5,40 65.4,39.9 C64.2,39.8 63,40.2 61.9,40.8 C60.7,41.5 59.6,42.5 58.8,43.7 C57.1,45.9 56.2,48.3 56.2,51.4 Z" id="Shape"></path>
                    <path d="M99.5,56.1 C99,57.9 98.5,59.6 98,61.2 C96.7,61.6 95.5,61.5 94.3,61.5 C92.3,61.6 90.3,61.6 88.3,61.7 C86.4,61.8 85.2,60.8 84.3,59.3 C83.8,58.4 83.5,57.5 83.3,56.4 C83.1,55.1 82.8,53.7 83,52.4 C83.1,50.9 83.2,49.5 83.5,48 C83.8,46.4 84.1,44.9 84.6,43.4 C84.8,42.9 84.9,42.3 85.1,41.7 C85,41.5 84.7,41.5 84.5,41.5 C83,41.5 81.6,41.5 80.1,41.5 C79.8,41.5 79.4,41.5 79,41.5 C79,41.3 79,41.1 79.1,41 C79.4,40.5 79.8,40 80.1,39.5 C80.4,39.1 80.7,38.9 81.3,38.9 C82.8,39 84.3,38.9 85.8,39 C86.2,39 86.4,38.9 86.7,38.5 C87.5,37.2 88.3,35.9 89.1,34.6 C89.2,34.5 89.3,34.4 89.4,34.3 C91.3,34.1 93.3,34 95.4,33.8 C94.8,34.9 93.9,35.6 93.3,36.4 C92.7,37.2 92,38.1 91.4,39.1 C93,39 94.4,38.9 95.9,38.9 C97.4,38.9 98.8,38.9 100.3,38.9 C100.3,39.5 99.9,39.8 99.7,40.2 C99.5,40.6 99.3,40.9 99,41.3 C96,41.3 93,41.3 90.1,41.3 C89.3,43.3 88.5,45.2 88.1,47.2 C87.9,47.9 87.9,48.7 87.7,49.4 C87.5,50.7 87.6,52 87.6,53.3 C87.6,54.4 87.8,55.5 88.2,56.6 C88.9,58.4 90.3,59.6 92.3,59.9 C93.9,60.1 95.2,59.7 96.4,58.7 C97.4,57.9 98.3,57.1 99.3,56.2 C99.2,56.3 99.3,56.3 99.5,56.1 Z" id="Shape"></path>
                </g>
            </g>
        </g>
    </g>
</svg>