<?xml version="1.0" encoding="UTF-8"?>
<svg width="190px" height="29px" viewBox="0 0 190 29" version="1.1" xmlns="http://www.w3.org/2000/svg" xmlns:xlink="http://www.w3.org/1999/xlink">
    <!-- Generator: Sketch 44.1 (41455) - http://www.bohemiancoding.com/sketch -->
    <title>productions</title>
    <desc>Created with Sketch.</desc>
    <defs></defs>
    <g id="Page-1" stroke="none" stroke-width="1" fill="none" fill-rule="evenodd">
        <g id="Artboard" transform="translate(-696.000000, -595.000000)" fill-rule="nonzero" fill="#BCBCBC">
            <g id="Group-2" transform="translate(696.000000, 376.000000)">
                <g id="Group" transform="translate(0.000000, 152.000000)">
                    <path d="M189.6,80.9 C189.5,81.4 189.4,81.9 189.3,82.4 C189.1,82.4 188.8,82.4 188.6,82.4 C186.6,82 184.6,81.5 182.7,81.1 C180.9,80.7 179,80.4 177.2,80 C175.2,79.6 173.3,79.2 171.3,78.9 C170,78.7 168.6,78.5 167.3,78.3 C166.3,78.1 165.3,77.9 164.3,77.8 C163.3,77.6 162.4,77.5 161.4,77.4 C159.7,77.1 158.1,76.9 156.4,76.6 C155.7,76.5 155,76.5 154.2,76.4 C153.5,76.3 152.8,76.2 152.1,76.1 C151.5,76 151,75.9 150.4,75.9 C149.6,75.8 148.9,75.8 148.1,75.7 C147.3,75.6 146.5,75.5 145.7,75.4 C145.1,75.3 144.5,75.2 143.8,75.2 C142.9,75.1 142,75.1 141.1,75 C140.1,74.9 139.1,74.7 138.1,74.6 C137.2,74.5 136.3,74.5 135.3,74.4 C134.1,74.3 132.9,74.1 131.7,74 C130.9,73.9 130.1,73.8 129.3,73.8 C127.9,73.7 126.6,73.7 125.2,73.6 C123.8,73.5 122.4,73.4 121,73.2 C120.9,73.2 120.9,73.2 120.8,73.2 C118.9,73.1 117,73.1 115.1,73 C113,72.8 111,72.9 108.9,72.8 C105.1,72.5 101.3,72.7 97.5,72.6 C96,72.6 94.6,72.4 93.1,72.5 C89.4,72.7 85.7,72.5 82,72.7 C80.2,72.8 78.5,72.7 76.7,72.9 C75.2,73 73.8,72.9 72.3,73.1 C71.1,73.2 69.9,73.2 68.7,73.3 C67.7,73.4 66.8,73.4 65.8,73.5 C63.9,73.6 62,73.8 60.1,73.9 C58.7,74 57.2,74.2 55.8,74.3 C54.4,74.4 52.9,74.6 51.5,74.7 C50.3,74.8 49,74.9 47.8,75.1 C46.4,75.3 44.9,75.5 43.5,75.7 C42.2,75.9 40.8,76 39.5,76.1 C38.3,76.3 37.1,76.5 35.9,76.6 C35.3,76.7 34.8,76.8 34.2,76.8 C32.6,77 30.9,77.2 29.3,77.4 C27.5,77.7 25.8,78 24,78.3 C22.6,78.5 21.2,78.7 19.8,78.9 C18.6,79.1 17.4,79.4 16.1,79.6 C14.8,79.8 13.5,80 12.2,80.3 C11.1,80.5 10,80.8 8.9,81 C7.1,81.4 5.3,81.7 3.5,82.1 C2.8,82.3 2,82.4 1.3,82.6 C1,82.7 0.7,82.7 0.4,82.7 C0.3,82.1 0.2,81.6 1.13686838e-13,81.1 C2.7,80.5 5.4,80 8.1,79.4 C10.3,79 12.4,78.5 14.5,78.1 C16.2,77.8 17.9,77.5 19.5,77.3 C20.8,77.1 22.1,76.8 23.4,76.6 C24.4,76.4 25.4,76.3 26.4,76.1 C27.5,75.9 28.7,75.7 29.8,75.5 C30.5,75.4 31.2,75.3 31.9,75.3 C32.4,75.2 32.8,75.2 33.3,75.1 C35,74.8 36.7,74.6 38.4,74.3 C39.2,74.2 40,74.2 40.8,74.1 C41.6,74 42.4,73.9 43.1,73.8 C43.8,73.7 44.5,73.6 45.2,73.6 C46,73.5 46.8,73.5 47.7,73.4 C49.3,73.2 50.9,73 52.5,72.8 C53.5,72.7 54.5,72.7 55.6,72.6 C56.7,72.5 57.9,72.4 59,72.2 C59.1,72.2 59.2,72.2 59.3,72.2 C60.7,72.1 62,72.1 63.4,72 C64.7,71.9 66,71.8 67.3,71.6 C67.4,71.6 67.4,71.6 67.5,71.6 C69.4,71.5 71.2,71.5 73.1,71.4 C74.9,71.3 76.8,71.3 78.6,71.2 C80.3,71 82,71.1 83.8,71 C90.1,70.7 96.4,70.8 102.7,70.9 C105.1,70.9 107.6,70.9 110,71.1 C111.6,71.2 113.1,71.1 114.7,71.3 C116,71.4 117.4,71.3 118.7,71.5 C119.9,71.6 121,71.6 122.2,71.7 C123.4,71.8 124.7,71.9 125.9,72.1 C126,72.1 126.1,72.1 126.2,72.1 C127.6,72.2 128.9,72.2 130.3,72.3 C131.4,72.4 132.5,72.5 133.5,72.7 C134.2,72.8 134.9,72.8 135.6,72.9 C136.7,73 137.7,73 138.8,73.1 C139.7,73.2 140.6,73.3 141.4,73.5 C142.2,73.6 143,73.6 143.8,73.7 C145.4,73.9 146.9,74.1 148.5,74.3 C149.3,74.4 150,74.4 150.8,74.5 C151.5,74.6 152.2,74.7 152.9,74.8 C153.5,74.9 154.1,75 154.8,75.1 C156.4,75.3 158.1,75.5 159.7,75.7 C161.1,75.9 162.5,76.2 163.9,76.4 C165.4,76.6 166.8,76.8 168.3,77 C169.9,77.3 171.5,77.6 173,77.8 C174.3,78 175.5,78.3 176.8,78.5 C178.7,78.9 180.5,79.3 182.4,79.6 C184.2,80 185.9,80.3 187.7,80.7 C188.2,80.5 188.9,80.7 189.6,80.9 Z" id="Shape"></path>
                    <path d="M153,88.5 C152.9,88.9 152.8,89.1 152.8,89.4 C152.8,91.3 152.8,93.1 152.8,95 C152.4,95.2 152,95.1 151.6,95.1 C151.6,92.1 151.6,89.1 151.6,86.1 C151.8,86.1 152,86.1 152.2,86.1 C152.8,86 153.1,86.3 153.4,86.7 C154.5,88.5 155.6,90.3 156.8,92.1 C156.9,92.3 157.1,92.5 157.3,92.8 C157.4,91.6 157.3,90.5 157.4,89.4 C157.4,88.3 157.4,87.3 157.4,86.2 C157.8,86 158.2,86.1 158.6,86.1 C158.6,89.1 158.6,92.1 158.6,95 C158.2,95 157.8,95 157.3,95 C155.9,93 154.5,90.8 153,88.5 Z" id="Shape"></path>
                    <path d="M62.7,95.1 C62.7,92.1 62.7,89.2 62.7,86.2 C63.6,86.1 64.4,86.2 65.3,86.2 C66,86.2 66.6,86.3 67.2,86.5 C68.9,87.1 69.8,88.4 70,90 C70.2,91.9 69.5,93.4 67.9,94.5 C67.5,94.7 67.1,94.9 66.7,95 C65.4,95.1 64.1,95.3 62.7,95.1 Z M64.1,87.2 C64,88.6 64,93.2 64.2,93.9 C64.7,93.9 65.2,93.9 65.7,93.9 C66.4,93.8 67.1,93.6 67.6,93.1 C68.3,92.5 68.7,91.8 68.7,90.8 C68.7,89.9 68.5,89.2 68.1,88.5 C67.6,87.8 67,87.4 66.2,87.4 C65.5,87.3 64.8,87.3 64.1,87.2 Z" id="Shape"></path>
                    <path d="M37.5,95.1 C37,95.1 36.6,95.1 36.1,95.1 C35.8,94.4 35.4,93.6 35,92.9 C34.9,92.7 34.8,92.4 34.7,92.2 C34.3,91.3 33.6,91 32.6,91.3 C32.6,92.6 32.6,93.8 32.6,95.2 C32.2,95.2 31.7,95.2 31.3,95.2 C31.3,92.2 31.3,89.3 31.3,86.4 C32.2,86.2 34.3,86.3 35,86.5 C35.9,86.7 36.5,87.3 36.6,88.2 C36.8,89.2 36.6,90.1 35.5,90.6 C35.4,90.7 35.3,90.8 35.2,90.8 C36,92.1 36.8,93.6 37.5,95.1 Z M32.7,89.9 C33.2,89.9 33.7,89.9 34.1,89.9 C34.6,89.8 35,89.6 35.3,89.1 C35.7,88.5 35.4,87.6 34.7,87.4 C34.1,87.2 33.4,87.2 32.7,87.1 C32.7,88.1 32.7,89 32.7,89.9 Z" id="Shape"></path>
                    <path d="M49.9,95.2 C48.3,95.3 46.5,94.1 46,91.9 C45.8,90.7 45.8,89.4 46.4,88.3 C47.7,85.8 50.8,85.3 52.7,87.3 C53.4,88.1 53.8,89 54,90 C54.2,90.9 54,91.7 53.8,92.6 C53.5,93.5 52.9,94.2 52.1,94.8 C51.5,95.1 50.7,95.2 49.9,95.2 Z M52.9,90.8 C52.9,89.7 52.7,89.2 52.2,88.3 C51.6,87.3 50.5,86.9 49.4,87.2 C48.3,87.5 47.8,88.2 47.5,89.1 C47.1,90.1 47.2,91.2 47.5,92.2 C47.8,93.2 49.1,94.1 50.1,94 C51.4,93.9 52.5,93.1 52.7,92 C52.7,91.7 52.8,91.3 52.9,90.8 Z" id="Shape"></path>
                    <path d="M143.1,90.7 C143.1,91.7 142.8,92.7 142.2,93.5 C141.5,94.6 140.4,95.1 139.1,95.2 C138.1,95.2 137.1,95 136.3,94.4 C136,94.2 135.7,93.8 135.5,93.5 C134.3,91.5 134.5,89.4 135.6,87.6 C136.2,86.7 137.2,86.1 138.4,86.2 C139,86.2 139.6,86.1 140.2,86.3 C141.5,86.8 142.2,87.7 142.7,89 C142.9,89.5 143,90.1 143.1,90.7 Z M136,90.7 C135.8,91.5 136.2,92.2 136.7,92.9 C137.8,94.6 140.3,94.3 141.2,92.8 C141.5,92.4 141.5,91.9 141.6,91.4 C141.9,90.3 141.6,89.3 141.1,88.5 C140,86.8 138,86.7 136.9,88.1 C136.3,88.9 135.9,89.7 136,90.7 Z" id="Shape"></path>
                    <path d="M78.6,86.2 C79,86.2 79.4,86.2 79.7,86.2 C79.7,86.5 79.8,86.7 79.8,87 C79.8,88.5 79.8,90.1 79.8,91.6 C79.8,92 79.9,92.4 80,92.8 C80.2,93.6 80.8,93.9 81.5,94 C83,94.2 84.2,93.5 84.2,91.8 C84.2,90.3 84.2,88.8 84.2,87.3 C84.2,87 84.2,86.6 84.2,86.3 C84.7,86.3 85.1,86.3 85.6,86.3 C85.5,87 85.7,87.7 85.5,88.4 C85.4,88.6 85.5,88.9 85.5,89.1 C85.5,90.1 85.5,91.2 85.5,92.2 C85.5,93.9 84.2,95.2 82.4,95.3 C81.6,95.3 80.8,95.3 80.1,94.8 C79.2,94.2 78.7,93.4 78.7,92.4 C78.6,90.3 78.6,88.3 78.6,86.2 Z" id="Shape"></path>
                    <path d="M17.3,86.2 C18.4,86.2 19.4,86.2 20.4,86.2 C21.4,86.3 22.4,87.2 22.6,88 C22.8,89.2 22.3,90.4 21.4,90.9 C21,91.2 20.5,91.3 20,91.3 C19.5,91.3 19,91.4 18.6,91.5 C18.6,92.1 18.6,92.7 18.6,93.3 C18.6,93.9 18.8,94.5 18.4,95.1 C18,95.1 17.7,95.1 17.3,95.1 C17.2,94.4 17.2,88.2 17.3,86.2 Z M18.7,90.3 C19.4,90.3 20.1,90.2 20.7,89.9 C21.3,89.6 21.5,89.2 21.5,88.5 C21.5,88 21.2,87.5 20.7,87.4 C20.1,87.3 19.4,87.2 18.7,87.1 C18.7,88.3 18.7,89.2 18.7,90.3 Z" id="Shape"></path>
                    <path d="M172.2,86.7 C172.1,86.9 172,87.1 172,87.3 C171.9,87.3 171.8,87.4 171.8,87.4 C171.4,87.4 171.1,87.3 170.7,87.2 C170.1,87.1 169.6,87.3 169.1,87.5 C168.8,87.6 168.6,88 168.5,88.3 C168.7,89 169,89.4 169.6,89.6 C170.1,89.9 170.6,90.1 171.1,90.4 C171.4,90.6 171.8,90.8 172,91.1 C173,92.1 172.9,93.7 171.8,94.6 C171.3,95 170.8,95.2 170.2,95.2 C169.3,95.2 168.3,95.3 167.4,94.9 C167.4,94.7 167.3,94.5 167.4,94.4 C167.5,93.9 167.7,93.8 168.2,93.9 C168.5,94 168.8,94.1 169.1,94.2 C169.6,94.3 170.2,94.2 170.6,94 C171.6,93.6 171.6,92.3 170.9,91.9 C170.5,91.6 170,91.3 169.6,91.1 C169.1,90.8 168.7,90.6 168.2,90.3 C167,89.5 167.1,87.5 168.2,86.7 C168.7,86.4 169.1,86.2 169.7,86.2 C170.2,86.2 170.7,86.2 171.2,86.2 C171.5,86.2 171.9,86.3 172.2,86.7 Z" id="Shape"></path>
                    <path d="M101.3,93.8 C101.2,94.3 101.1,94.6 101,94.9 C99.4,95.3 97.8,95.4 96.3,94.6 C95.1,93.9 94.2,92.9 94.1,91.4 C94,90 94.1,89.1 94.4,88.5 C95.3,87 96.5,86.2 98.3,86.2 C98.8,86.2 99.4,86.2 99.9,86.2 C100.1,86.2 100.4,86.2 100.6,86.3 C100.8,86.4 101,86.5 101.1,86.7 C101.2,87 101.2,87.3 100.8,87.5 C100.5,87.4 100.1,87.2 99.8,87.2 C98.9,87.1 98.1,87.2 97.3,87.5 C96.1,87.9 95.6,89 95.4,90.1 C95.3,90.7 95.4,91.3 95.6,91.9 C96.1,93.2 97,93.9 98.4,94 C99.1,94 99.8,94.1 100.5,93.8 C100.7,93.7 100.9,93.8 101.3,93.8 Z" id="Shape"></path>
                    <path d="M112.4,95.1 C112.4,92.4 112.4,89.9 112.4,87.2 C111.6,87 110.7,87.2 109.8,87.1 C109.8,86.8 109.8,86.5 109.8,86.1 C112,86.1 114.2,86.1 116.4,86.1 C116.4,86.4 116.4,86.8 116.4,87.1 C115.5,87.1 114.7,87.1 113.8,87.1 C113.8,87.3 113.7,87.6 113.7,87.8 C113.7,89.9 113.7,91.9 113.7,94 C113.7,94.3 113.8,94.6 113.8,95 C113.3,95.2 112.8,95.2 112.4,95.1 Z" id="Shape"></path>
                    <path d="M126.2,95.1 C125.8,95.1 125.5,95.1 125.2,95.1 C125,94.4 125,87.6 125.1,86.1 C125.3,86.1 125.5,86.1 125.7,86.1 C125.9,86.1 126,86.1 126.2,86.1 C126.2,89.2 126.2,92.1 126.2,95.1 Z" id="Shape"></path>
                </g>
            </g>
        </g>
    </g>
</svg>