<?xml version="1.0" encoding="utf-8"?>
<!-- Generator: Adobe Illustrator 17.1.0, SVG Export Plug-In . SVG Version: 6.00 Build 0)  -->
<!DOCTYPE svg PUBLIC "-//W3C//DTD SVG 1.1//EN" "http://www.w3.org/Graphics/SVG/1.1/DTD/svg11.dtd">
<svg version="1.1" id="Layer_1" xmlns="http://www.w3.org/2000/svg" xmlns:xlink="http://www.w3.org/1999/xlink" x="0px" y="0px"
	 viewBox="0 0 1378.7 1387.1" enable-background="new 0 0 1378.7 1387.1" xml:space="preserve">
<g opacity="0.23">
	
		<image overflow="visible" width="6045" height="6080" xlink:href="69F7657F320E1C54.png"  transform="matrix(0.24 0 0 0.24 -36 -36)">
	</image>
</g>
<g opacity="0.69">
	<g>
		
			<image overflow="visible" width="319" height="319" xlink:href="69F7657F320E1C55.png"  transform="matrix(0.24 0 0 0.24 611.3911 686.8676)">
		</image>
	</g>
	<g>
		
			<image overflow="visible" width="319" height="319" xlink:href="69F7657F320E1C53.png"  transform="matrix(0.24 0 0 0.24 561.1311 847.8762)">
		</image>
	</g>
	<g>
		
			<image overflow="visible" width="319" height="319" xlink:href="69F7657F320E1C5C.png"  transform="matrix(0.24 0 0 0.24 673.1276 976.5357)">
		</image>
	</g>
	<g>
		
			<image overflow="visible" width="319" height="319" xlink:href="69F7657F320E1C5F.png"  transform="matrix(0.24 0 0 0.24 584.6195 1120.0632)">
		</image>
	</g>
	<g>
		
			<image overflow="visible" width="319" height="319" xlink:href="69F7657F320E1C5D.png"  transform="matrix(0.24 0 0 0.24 594.1002 1138.9255)">
		</image>
	</g>
	<g>
		
			<image overflow="visible" width="319" height="319" xlink:href="69F7657F320E1C52.png"  transform="matrix(0.24 0 0 0.24 796.2979 991.1744)">
		</image>
	</g>
	<g>
		
			<image overflow="visible" width="319" height="319" xlink:href="69F7657F320E1C56.png"  transform="matrix(0.24 0 0 0.24 841.7736 966.2977)">
		</image>
	</g>
	<g>
		
			<image overflow="visible" width="319" height="319" xlink:href="69F7657F320E1C57.png"  transform="matrix(0.24 0 0 0.24 1066.7273 793.9024)">
		</image>
	</g>
	<g>
		
			<image overflow="visible" width="319" height="319" xlink:href="50C1AB623C0A1873.png"  transform="matrix(0.24 0 0 0.24 1103.4182 1026.4415)">
		</image>
	</g>
	<g>
		
			<image overflow="visible" width="319" height="319" xlink:href="50C1AB623C0A1871.png"  transform="matrix(0.24 0 0 0.24 1122.4552 1026.4415)">
		</image>
	</g>
	<g>
		
			<image overflow="visible" width="319" height="319" xlink:href="50C1AB623C0A1877.png"  transform="matrix(0.24 0 0 0.24 1150.3654 1026.4415)">
		</image>
	</g>
	<g>
		
			<image overflow="visible" width="319" height="319" xlink:href="50C1AB623C0A1872.png"  transform="matrix(0.24 0 0 0.24 783.9353 666.8383)">
		</image>
	</g>
	<g>
		
			<image overflow="visible" width="319" height="319" xlink:href="50C1AB623C0A186D.png"  transform="matrix(0.24 0 0 0.24 821.7283 686.8677)">
		</image>
	</g>
	<g>
		
			<image overflow="visible" width="319" height="319" xlink:href="50C1AB623C0A186E.png"  transform="matrix(0.24 0 0 0.24 830.2531 714.0978)">
		</image>
	</g>
	<g>
		
			<image overflow="visible" width="319" height="319" xlink:href="50C1AB623C0A186F.png"  transform="matrix(0.24 0 0 0.24 600.9261 666.8383)">
		</image>
	</g>
	<g>
		
			<image overflow="visible" width="307" height="307" xlink:href="50C1AB623C0A1891.png"  transform="matrix(0.24 0 0 0.24 550.5661 635.7694)">
		</image>
	</g>
	<g>
		
			<image overflow="visible" width="307" height="307" xlink:href="50C1AB623C0A1893.png"  transform="matrix(0.24 0 0 0.24 555.8486 610.4946)">
		</image>
	</g>
	<g>
		
			<image overflow="visible" width="307" height="307" xlink:href="50C1AB623C0A1896.png"  transform="matrix(0.24 0 0 0.24 405.1747 724.5628)">
		</image>
	</g>
	<g>
		
			<image overflow="visible" width="307" height="307" xlink:href="50C1AB623C0A188A.png"  transform="matrix(0.24 0 0 0.24 316.6924 732.697)">
		</image>
	</g>
	<g>
		
			<image overflow="visible" width="307" height="307" xlink:href="50C1AB623C0A1889.png"  transform="matrix(0.24 0 0 0.24 213.1172 740.6111)">
		</image>
	</g>
	<g>
		
			<image overflow="visible" width="307" height="307" xlink:href="50C1AB623C0A18B6.png"  transform="matrix(0.24 0 0 0.24 264.5122 861.528)">
		</image>
	</g>
	<g>
		
			<image overflow="visible" width="319" height="319" xlink:href="50C1AB623C0A18B9.png"  transform="matrix(0.24 0 0 0.24 298.9185 926.3739)">
		</image>
	</g>
	<g>
		
			<image overflow="visible" width="307" height="307" xlink:href="50C1AB623C0A18BA.png"  transform="matrix(0.24 0 0 0.24 389.5019 893.6879)">
		</image>
	</g>
	<g>
		
			<image overflow="visible" width="307" height="307" xlink:href="50C1AB623C0A18B8.png"  transform="matrix(0.24 0 0 0.24 438.6483 909.7149)">
		</image>
	</g>
	<g>
		
			<image overflow="visible" width="307" height="307" xlink:href="50C1AB623C0A18BE.png"  transform="matrix(0.24 0 0 0.24 353.0972 951.0493)">
		</image>
	</g>
	<g>
		
			<image overflow="visible" width="307" height="307" xlink:href="50C1AB623C0A18BB.png"  transform="matrix(0.24 0 0 0.24 204.7213 647.7258)">
		</image>
	</g>
	<g>
		
			<image overflow="visible" width="307" height="307" xlink:href="50C1AB623C0A1886.png"  transform="matrix(0.24 0 0 0.24 101.7398 585.3868)">
		</image>
	</g>
	<g>
		
			<image overflow="visible" width="307" height="307" xlink:href="50C1AB623C0A1887.png"  transform="matrix(0.24 0 0 0.24 103.5995 645.9056)">
		</image>
	</g>
	<g>
		
			<image overflow="visible" width="307" height="307" xlink:href="50C1AB623C0A18DD.png"  transform="matrix(0.24 0 0 0.24 143.163 666.8383)">
		</image>
	</g>
	<g>
		
			<image overflow="visible" width="307" height="307" xlink:href="50C1AB623C0A18DB.png"  transform="matrix(0.24 0 0 0.24 81.882 732.697)">
		</image>
	</g>
	<g>
		
			<image overflow="visible" width="307" height="307" xlink:href="50C1AB623C0A18E5.png"  transform="matrix(0.24 0 0 0.24 60.0392 592.4895)">
		</image>
	</g>
	<g>
		
			<image overflow="visible" width="307" height="307" xlink:href="50C1AB623C0A18E7.png"  transform="matrix(0.24 0 0 0.24 296.6699 724.5628)">
		</image>
	</g>
	<g>
		
			<image overflow="visible" width="307" height="307" xlink:href="50C1AB623C0A18E4.png"  transform="matrix(0.24 0 0 0.24 218.3997 560.0776)">
		</image>
	</g>
	<g>
		
			<image overflow="visible" width="307" height="307" xlink:href="50C1AB623C0A18EB.png"  transform="matrix(0.24 0 0 0.24 177.7475 549.6873)">
		</image>
	</g>
	<g>
		
			<image overflow="visible" width="307" height="307" xlink:href="50C1AB623C0A18ED.png"  transform="matrix(0.24 0 0 0.24 32.7357 587.207)">
		</image>
	</g>
	<g>
		
			<image overflow="visible" width="307" height="307" xlink:href="50C1AB623C0A18EF.png"  transform="matrix(0.24 0 0 0.24 7.6408 544.4048)">
		</image>
	</g>
	<g>
		
			<image overflow="visible" width="307" height="307" xlink:href="50C1AB623C0A18EC.png"  transform="matrix(0.24 0 0 0.24 -36 554.9698)">
		</image>
	</g>
	<g>
		
			<image overflow="visible" width="307" height="307" xlink:href="50C1AB623C0A18E6.png"  transform="matrix(0.24 0 0 0.24 382.3991 597.772)">
		</image>
	</g>
	<g>
		
			<image overflow="visible" width="307" height="307" xlink:href="50C1AB623C0A18C0.png"  transform="matrix(0.24 0 0 0.24 553.1182 560.0776)">
		</image>
	</g>
	<g>
		
			<image overflow="visible" width="307" height="307" xlink:href="50C1AB623C0A18C3.png"  transform="matrix(0.24 0 0 0.24 663.2945 464.212)">
		</image>
	</g>
	<g>
		
			<image overflow="visible" width="307" height="307" xlink:href="50C1AB623C0A18C1.png"  transform="matrix(0.24 0 0 0.24 675.8579 496.0663)">
		</image>
	</g>
	<g>
		
			<image overflow="visible" width="307" height="307" xlink:href="50C1AB623C0A18C7.png"  transform="matrix(0.24 0 0 0.24 675.8579 536.3919)">
		</image>
	</g>
	<g>
		
			<image overflow="visible" width="307" height="307" xlink:href="50C1AB623C0A18C2.png"  transform="matrix(0.24 0 0 0.24 715.2468 460.0143)">
		</image>
	</g>
	<g>
		
			<image overflow="visible" width="307" height="307" xlink:href="50C1AB623C0A18DC.png"  transform="matrix(0.24 0 0 0.24 737.1607 437.4128)">
		</image>
	</g>
	<g>
		
			<image overflow="visible" width="307" height="307" xlink:href="50C1AB623C0A18DE.png"  transform="matrix(0.24 0 0 0.24 810.8865 527.9698)">
		</image>
	</g>
	<g>
		
			<image overflow="visible" width="307" height="307" xlink:href="50C1AB623C0A18DF.png"  transform="matrix(0.24 0 0 0.24 893.8098 514.1167)">
		</image>
	</g>
	<g>
		
			<image overflow="visible" width="307" height="307" xlink:href="50C1AB623C0A18C4.png"  transform="matrix(0.24 0 0 0.24 904.3748 571.9967)">
		</image>
	</g>
	<g>
		
			<image overflow="visible" width="307" height="307" xlink:href="50C1AB623C0A18C5.png"  transform="matrix(0.24 0 0 0.24 1010.8088 652.0756)">
		</image>
	</g>
	<g>
		
			<image overflow="visible" width="307" height="307" xlink:href="50C1AB623C0A193F.png"  transform="matrix(0.24 0 0 0.24 1030.2249 619.4628)">
		</image>
	</g>
	<g>
		
			<image overflow="visible" width="307" height="307" xlink:href="50C1AB623C0A193D.png"  transform="matrix(0.24 0 0 0.24 948.7951 672.1048)">
		</image>
	</g>
	<g>
		
			<image overflow="visible" width="307" height="307" xlink:href="50C1AB623C0A193B.png"  transform="matrix(0.24 0 0 0.24 949.8798 724.2024)">
		</image>
	</g>
	<g>
		
			<image overflow="visible" width="307" height="307" xlink:href="50C1AB623C0A1925.png"  transform="matrix(0.24 0 0 0.24 831.0646 714.7222)">
		</image>
	</g>
	<g>
		
			<image overflow="visible" width="307" height="307" xlink:href="50C1AB623C0A1927.png"  transform="matrix(0.24 0 0 0.24 823.2717 688.4109)">
		</image>
	</g>
	<g>
		
			<image overflow="visible" width="307" height="307" xlink:href="50C1AB623C0A192A.png"  transform="matrix(0.24 0 0 0.24 828.5542 647.9041)">
		</image>
	</g>
	<g>
		
			<image overflow="visible" width="307" height="307" xlink:href="50C1AB623C0A192B.png"  transform="matrix(0.24 0 0 0.24 817.9892 560.0776)">
		</image>
	</g>
	<g>
		
			<image overflow="visible" width="307" height="307" xlink:href="50C1AB623C0A192D.png"  transform="matrix(0.24 0 0 0.24 776.9086 535.4818)">
		</image>
	</g>
	<g>
		
			<image overflow="visible" width="307" height="307" xlink:href="50C1AB623C0A192F.png"  transform="matrix(0.24 0 0 0.24 788.209 564.2758)">
		</image>
	</g>
	<g>
		
			<image overflow="visible" width="307" height="307" xlink:href="50C1AB623C0A1928.png"  transform="matrix(0.24 0 0 0.24 706.6766 411.6527)">
		</image>
	</g>
	<g>
		
			<image overflow="visible" width="307" height="307" xlink:href="50C1AB623C0A190E.png"  transform="matrix(0.24 0 0 0.24 680.0557 402.4757)">
		</image>
	</g>
	<g>
		
			<image overflow="visible" width="307" height="307" xlink:href="50C1AB623C0A190D.png"  transform="matrix(0.24 0 0 0.24 718.709 352.7683)">
		</image>
	</g>
	<g>
		
			<image overflow="visible" width="307" height="307" xlink:href="50C1AB623C0A190A.png"  transform="matrix(0.24 0 0 0.24 746.9493 322.7153)">
		</image>
	</g>
	<g>
		
			<image overflow="visible" width="307" height="307" xlink:href="50C1AB623C0A1975.png"  transform="matrix(0.24 0 0 0.24 798.8274 346.5757)">
		</image>
	</g>
	<g>
		
			<image overflow="visible" width="307" height="307" xlink:href="50C1AB623C0A1976.png"  transform="matrix(0.24 0 0 0.24 800.3214 300.998)">
		</image>
	</g>
	<g>
		
			<image overflow="visible" width="307" height="307" xlink:href="50C1AB623C0A1974.png"  transform="matrix(0.24 0 0 0.24 878.2845 347.4858)">
		</image>
	</g>
	<g>
		
			<image overflow="visible" width="307" height="307" xlink:href="50C1AB623C0A197A.png"  transform="matrix(0.24 0 0 0.24 905.1699 195.1448)">
		</image>
	</g>
	<g>
		
			<image overflow="visible" width="307" height="307" xlink:href="50C1AB623C0A197D.png"  transform="matrix(0.24 0 0 0.24 982.3184 233.9522)">
		</image>
	</g>
	<g>
		
			<image overflow="visible" width="307" height="307" xlink:href="50C1AB623C0A197E.png"  transform="matrix(0.24 0 0 0.24 1048.4272 297.7102)">
		</image>
	</g>
	<g>
		
			<image overflow="visible" width="307" height="307" xlink:href="50C1AB623C0A197C.png"  transform="matrix(0.24 0 0 0.24 1157.9445 348.3959)">
		</image>
	</g>
	<g>
		
			<image overflow="visible" width="307" height="307" xlink:href="50C1AB623C0A1911.png"  transform="matrix(0.24 0 0 0.24 1124.8323 416.9352)">
		</image>
	</g>
	<g>
		
			<image overflow="visible" width="320" height="320" xlink:href="50C1AB623C0A191F.png"  transform="matrix(0.24 0 0 0.24 1088.7291 379.7651)">
		</image>
	</g>
	<g>
		
			<image overflow="visible" width="307" height="307" xlink:href="50C1AB623C0A1910.png"  transform="matrix(0.24 0 0 0.24 788.209 155.6925)">
		</image>
	</g>
	<g>
		
			<image overflow="visible" width="307" height="307" xlink:href="50C1AB623C0A1913.png"  transform="matrix(0.24 0 0 0.24 966.2886 415.5473)">
		</image>
	</g>
	<g>
		
			<image overflow="visible" width="307" height="307" xlink:href="50C1AB623C0A1917.png"  transform="matrix(0.24 0 0 0.24 494.4952 327.9978)">
		</image>
	</g>
	<g>
		
			<image overflow="visible" width="307" height="307" xlink:href="50C1AB623C0A1912.png"  transform="matrix(0.24 0 0 0.24 446.218 264.8204)">
		</image>
	</g>
	<g>
		
			<image overflow="visible" width="307" height="307" xlink:href="50C1AB623C0A190C.png"  transform="matrix(0.24 0 0 0.24 478.6476 264.8204)">
		</image>
	</g>
	<g>
		
			<image overflow="visible" width="307" height="307" xlink:href="50C1AB623C0A190F.png"  transform="matrix(0.24 0 0 0.24 531.0515 21.4132)">
		</image>
	</g>
	<g>
		
			<image overflow="visible" width="307" height="307" xlink:href="50C1AB623C0A190B.png"  transform="matrix(0.24 0 0 0.24 602.7463 39.1605)">
		</image>
	</g>
	<g>
		
			<image overflow="visible" width="307" height="307" xlink:href="50C1AB623C0A1930.png"  transform="matrix(0.24 0 0 0.24 642.1844 39.1605)">
		</image>
	</g>
	<g>
		
			<image overflow="visible" width="307" height="307" xlink:href="50C1AB623C0A192C.png"  transform="matrix(0.24 0 0 0.24 701.3941 107.2676)">
		</image>
	</g>
	<g>
		
			<image overflow="visible" width="313" height="313" xlink:href="50C1AB623C0A192E.png"  transform="matrix(0.24 0 0 0.24 728.459 100.3546)">
		</image>
	</g>
	<g>
		
			<image overflow="visible" width="313" height="313" xlink:href="50C1AB623C0A1929.png"  transform="matrix(0.24 0 0 0.24 752.2319 25.8805)">
		</image>
	</g>
	<g>
		
			<image overflow="visible" width="313" height="313" xlink:href="50C1AB623C0A1926.png"  transform="matrix(0.24 0 0 0.24 822.4562 -23.137)">
		</image>
	</g>
	<g>
		
			<image overflow="visible" width="313" height="313" xlink:href="50C1AB623C0A19D4.png"  transform="matrix(0.24 0 0 0.24 845.3376 -0.2628)">
		</image>
	</g>
	<g>
		
			<image overflow="visible" width="307" height="307" xlink:href="50C1AB623C0A19D7.png"  transform="matrix(0.24 0 0 0.24 512.4344 344.7555)">
		</image>
	</g>
	<g>
		
			<image overflow="visible" width="307" height="307" xlink:href="50C1AB623C0A19D5.png"  transform="matrix(0.24 0 0 0.24 489.2127 361.4711)">
		</image>
	</g>
	<g>
		
			<image overflow="visible" width="307" height="307" xlink:href="50C1AB623C0A19DB.png"  transform="matrix(0.24 0 0 0.24 471.3712 338.5628)">
		</image>
	</g>
	<g>
		
			<image overflow="visible" width="307" height="307" xlink:href="50C1AB623C0A19DC.png"  transform="matrix(0.24 0 0 0.24 310.6247 279.458)">
		</image>
	</g>
	<g>
		
			<image overflow="visible" width="307" height="307" xlink:href="50C1AB623C0A19DF.png"  transform="matrix(0.24 0 0 0.24 165.7911 315.2295)">
		</image>
	</g>
	<g>
		
			<image overflow="visible" width="307" height="307" xlink:href="50C1AB623C0A19FB.png"  transform="matrix(0.24 0 0 0.24 193.2195 377.1442)">
		</image>
	</g>
	<g>
		
			<image overflow="visible" width="317" height="317" xlink:href="50C1AB623C0A19F9.png"  transform="matrix(0.24 0 0 0.24 594.445 754.1763)">
		</image>
	</g>
	<g>
		
			<image overflow="visible" width="317" height="317" xlink:href="50C1AB623C0A19FF.png"  transform="matrix(0.24 0 0 0.24 513.6579 754.1763)">
		</image>
	</g>
	<g>
		
			<image overflow="visible" width="317" height="317" xlink:href="50C1AB623C0A19FA.png"  transform="matrix(0.24 0 0 0.24 485.1413 831.9155)">
		</image>
	</g>
	<g>
		
			<image overflow="visible" width="343" height="343" xlink:href="50C1AB623C0A19C5.png"  transform="matrix(0.24 0 0 0.24 190.695 870.356)">
		</image>
	</g>
	<g>
		
			<image overflow="visible" width="343" height="343" xlink:href="50C1AB623C0A19C6.png"  transform="matrix(0.24 0 0 0.24 142.7624 848.6768)">
		</image>
	</g>
	<g>
		
			<image overflow="visible" width="343" height="343" xlink:href="50C1AB623C0A19C7.png"  transform="matrix(0.24 0 0 0.24 192.5153 919.502)">
		</image>
	</g>
	<g>
		
			<image overflow="visible" width="343" height="343" xlink:href="50C1AB623C0A19C9.png"  transform="matrix(0.24 0 0 0.24 49.3239 965.605)">
		</image>
	</g>
	<g>
		
			<image overflow="visible" width="343" height="343" xlink:href="50C1AB623C0A19CB.png"  transform="matrix(0.24 0 0 0.24 -29.8568 935.7085)">
		</image>
	</g>
	<g>
		
			<image overflow="visible" width="343" height="343" xlink:href="50C1AB623C0A19CE.png"  transform="matrix(0.24 0 0 0.24 205.2575 989.5811)">
		</image>
	</g>
	<g>
		
			<image overflow="visible" width="343" height="343" xlink:href="ABFDC532AD7589C9.png"  transform="matrix(0.24 0 0 0.24 319.6286 1089.2637)">
		</image>
	</g>
	<g>
		
			<image overflow="visible" width="343" height="343" xlink:href="ABFDC532AD7589CB.png"  transform="matrix(0.24 0 0 0.24 432.4831 1063.4419)">
		</image>
	</g>
	<g>
		
			<image overflow="visible" width="343" height="343" xlink:href="ABFDC532AD7589C8.png"  transform="matrix(0.24 0 0 0.24 428.5397 1090.9438)">
		</image>
	</g>
	<g>
		
			<image overflow="visible" width="343" height="343" xlink:href="ABFDC532AD7589D7.png"  transform="matrix(0.24 0 0 0.24 457.36 1117.3374)">
		</image>
	</g>
	<g>
		
			<image overflow="visible" width="343" height="343" xlink:href="ABFDC532AD7589D9.png"  transform="matrix(0.24 0 0 0.24 451.5954 1174.978)">
		</image>
	</g>
	<g>
		
			<image overflow="visible" width="343" height="343" xlink:href="ABFDC532AD7589DB.png"  transform="matrix(0.24 0 0 0.24 548.6628 1180.439)">
		</image>
	</g>
	<g>
		
			<image overflow="visible" width="343" height="343" xlink:href="ABFDC532AD7589D8.png"  transform="matrix(0.24 0 0 0.24 660.9108 1123.0635)">
		</image>
	</g>
	<g>
		
			<image overflow="visible" width="343" height="343" xlink:href="ABFDC532AD7589DF.png"  transform="matrix(0.24 0 0 0.24 676.3825 1144.2007)">
		</image>
	</g>
	<g>
		
			<image overflow="visible" width="343" height="343" xlink:href="ABFDC532AD7589DA.png"  transform="matrix(0.24 0 0 0.24 694.2819 1225.2012)">
		</image>
	</g>
	<g>
		
			<image overflow="visible" width="343" height="343" xlink:href="ABFDC532AD7589C6.png"  transform="matrix(0.24 0 0 0.24 696.7087 1277.3813)">
		</image>
	</g>
	<g>
		
			<image overflow="visible" width="343" height="343" xlink:href="ABFDC532AD7589BC.png"  transform="matrix(0.24 0 0 0.24 729.4724 1214.583)">
		</image>
	</g>
	<g>
		
			<image overflow="visible" width="343" height="343" xlink:href="ABFDC532AD7589A3.png"  transform="matrix(0.24 0 0 0.24 762.5407 1262.5161)">
		</image>
	</g>
	<g>
		
			<image overflow="visible" width="343" height="343" xlink:href="ABFDC532AD7589A4.png"  transform="matrix(0.24 0 0 0.24 767.6979 1160.4067)">
		</image>
	</g>
	<g>
		
			<image overflow="visible" width="343" height="343" xlink:href="ABFDC532AD7589A7.png"  transform="matrix(0.24 0 0 0.24 973.3845 1199.6938)">
		</image>
	</g>
	<g>
		
			<image overflow="visible" width="343" height="343" xlink:href="ABFDC532AD7589A5.png"  transform="matrix(0.24 0 0 0.24 1000.6882 1184.8921)">
		</image>
	</g>
	<g>
		
			<image overflow="visible" width="385" height="385" xlink:href="ABFDC532AD7589A2.png"  transform="matrix(0.24 0 0 0.24 937.1266 1245.9097)">
		</image>
	</g>
	<g>
		
			<image overflow="visible" width="343" height="343" xlink:href="ABFDC532AD7589AC.png"  transform="matrix(0.24 0 0 0.24 420.652 1262.6528)">
		</image>
	</g>
	<g>
		
			<image overflow="visible" width="343" height="343" xlink:href="ABFDC532AD7589AF.png"  transform="matrix(0.24 0 0 0.24 484.36 1283.1191)">
		</image>
	</g>
	<g>
		
			<image overflow="visible" width="343" height="343" xlink:href="ABFDC532AD7589AD.png"  transform="matrix(0.24 0 0 0.24 513.1804 1240.3433)">
		</image>
	</g>
	<g>
		
			<image overflow="visible" width="342" height="342" xlink:href="ABFDC532AD7589A1.png"  transform="matrix(0.24 0 0 0.24 371.0016 1111.6572)">
		</image>
	</g>
	<g>
		
			<image overflow="visible" width="317" height="317" xlink:href="ABFDC532AD75898F.png"  transform="matrix(0.24 0 0 0.24 66.7614 843.7466)">
		</image>
	</g>
	<g>
		
			<image overflow="visible" width="317" height="317" xlink:href="ABFDC532AD758981.png"  transform="matrix(0.24 0 0 0.24 90.4245 924.1816)">
		</image>
	</g>
	<g>
		
			<image overflow="visible" width="317" height="317" xlink:href="ABFDC532AD758983.png"  transform="matrix(0.24 0 0 0.24 50.6842 894.1191)">
		</image>
	</g>
	<g>
		
			<image overflow="visible" width="317" height="317" xlink:href="ABFDC532AD758986.png"  transform="matrix(0.24 0 0 0.24 230.2809 1064.0078)">
		</image>
	</g>
	<g>
		
			<image overflow="visible" width="317" height="317" xlink:href="ABFDC532AD758987.png"  transform="matrix(0.24 0 0 0.24 197.9509 1053.3896)">
		</image>
	</g>
	<g>
		
			<image overflow="visible" width="317" height="317" xlink:href="ABFDC532AD758982.png"  transform="matrix(0.24 0 0 0.24 148.1979 1084.334)">
		</image>
	</g>
	<g>
		
			<image overflow="visible" width="317" height="317" xlink:href="ABFDC532AD75897D.png"  transform="matrix(0.24 0 0 0.24 220.4216 1137.3745)">
		</image>
	</g>
	<g>
		
			<image overflow="visible" width="317" height="317" xlink:href="ABFDC532AD75897E.png"  transform="matrix(0.24 0 0 0.24 240.1403 1144.0488)">
		</image>
	</g>
	<g>
		
			<image overflow="visible" width="317" height="317" xlink:href="ABFDC532AD75897F.png"  transform="matrix(0.24 0 0 0.24 135.4762 1130.397)">
		</image>
	</g>
	<g>
		
			<image overflow="visible" width="317" height="317" xlink:href="ABFDC532AD758A81.png"  transform="matrix(0.24 0 0 0.24 -0.8275 906.8999)">
		</image>
	</g>
	<g>
		
			<image overflow="visible" width="317" height="317" xlink:href="ABFDC532AD758A9E.png"  transform="matrix(0.24 0 0 0.24 523.1384 892.4897)">
		</image>
	</g>
	<g>
		
			<image overflow="visible" width="317" height="317" xlink:href="ABFDC532AD758A99.png"  transform="matrix(0.24 0 0 0.24 437.4499 907.7852)">
		</image>
	</g>
	<g>
		
			<image overflow="visible" width="317" height="317" xlink:href="ABFDC532AD758A9A.png"  transform="matrix(0.24 0 0 0.24 388.3044 893.2217)">
		</image>
	</g>
	<g>
		
			<image overflow="visible" width="317" height="317" xlink:href="ABFDC532AD758A98.png"  transform="matrix(0.24 0 0 0.24 351.8991 949.1196)">
		</image>
	</g>
	<g>
		
			<image overflow="visible" width="317" height="317" xlink:href="ABFDC532AD758AA6.png"  transform="matrix(0.24 0 0 0.24 263.3141 860.3301)">
		</image>
	</g>
	<g>
		
			<image overflow="visible" width="317" height="317" xlink:href="ABFDC532AD758AA9.png"  transform="matrix(0.24 0 0 0.24 598.6169 788.1538)">
		</image>
	</g>
	<g>
		
			<image overflow="visible" width="317" height="317" xlink:href="ABFDC532AD758AAA.png"  transform="matrix(0.24 0 0 0.24 616.7429 822.4351)">
		</image>
	</g>
	<g>
		
			<image overflow="visible" width="317" height="317" xlink:href="ABFDC532AD758AA8.png"  transform="matrix(0.24 0 0 0.24 676.1276 741.9653)">
		</image>
	</g>
	<g>
		
			<image overflow="visible" width="317" height="317" xlink:href="ABFDC532AD758AAE.png"  transform="matrix(0.24 0 0 0.24 695.0886 700.4126)">
		</image>
	</g>
	<g>
		
			<image overflow="visible" width="317" height="317" xlink:href="ABFDC532AD758AAB.png"  transform="matrix(0.24 0 0 0.24 691.4479 664.5298)">
		</image>
	</g>
	<g>
		
			<image overflow="visible" width="317" height="317" xlink:href="ABFDC532AD758ACD.png"  transform="matrix(0.24 0 0 0.24 571.8444 638.9438)">
		</image>
	</g>
	<g>
		
			<image overflow="visible" width="317" height="317" xlink:href="ABFDC532AD758ACF.png"  transform="matrix(0.24 0 0 0.24 513.6579 631.7651)">
		</image>
	</g>
	<g>
		
			<image overflow="visible" width="317" height="317" xlink:href="ABFDC532AD758ACC.png"  transform="matrix(0.24 0 0 0.24 514.5681 609.6948)">
		</image>
	</g>
	<g>
		
			<image overflow="visible" width="317" height="317" xlink:href="ABFDC532AD758ACB.png"  transform="matrix(0.24 0 0 0.24 508.0602 567.4502)">
		</image>
	</g>
	<g>
		
			<image overflow="visible" width="317" height="317" xlink:href="ABFDC532AD758AD5.png"  transform="matrix(0.24 0 0 0.24 466.1804 502.5288)">
		</image>
	</g>
	<g>
		
			<image overflow="visible" width="317" height="317" xlink:href="ABFDC532AD758AD7.png"  transform="matrix(0.24 0 0 0.24 366.8405 502.5288)">
		</image>
	</g>
	<g>
		
			<image overflow="visible" width="317" height="317" xlink:href="ABFDC532AD758AD4.png"  transform="matrix(0.24 0 0 0.24 334.6823 456.2641)">
		</image>
	</g>
	<g>
		
			<image overflow="visible" width="317" height="317" xlink:href="ABFDC532AD758ADB.png"  transform="matrix(0.24 0 0 0.24 390.6813 404.084)">
		</image>
	</g>
	<g>
		
			<image overflow="visible" width="317" height="317" xlink:href="ABFDC532AD758ADD.png"  transform="matrix(0.24 0 0 0.24 596.2653 383.227)">
		</image>
	</g>
	<g>
		
			<image overflow="visible" width="317" height="317" xlink:href="ABFDC532AD758ADF.png"  transform="matrix(0.24 0 0 0.24 613.4059 456.2641)">
		</image>
	</g>
	<g>
		
			<image overflow="visible" width="317" height="317" xlink:href="ABFDC532AD758AF0.png"  transform="matrix(0.24 0 0 0.24 700.9284 487.4355)">
		</image>
	</g>
	<g>
		
			<image overflow="visible" width="317" height="317" xlink:href="ABFDC532AD758AFF.png"  transform="matrix(0.24 0 0 0.24 708.5886 510.1884)">
		</image>
	</g>
	<g>
		
			<image overflow="visible" width="317" height="317" xlink:href="ABFDC532AD758AF1.png"  transform="matrix(0.24 0 0 0.24 819.6999 324.9795)">
		</image>
	</g>
	<g>
		
			<image overflow="visible" width="317" height="317" xlink:href="ABFDC532AD758AF3.png"  transform="matrix(0.24 0 0 0.24 835.4743 300.7099)">
		</image>
	</g>
	<g>
		
			<image overflow="visible" width="317" height="317" xlink:href="ABFDC532AD758AF6.png"  transform="matrix(0.24 0 0 0.24 835.4743 137.4958)">
		</image>
	</g>
	<g>
		
			<image overflow="visible" width="317" height="317" xlink:href="ABFDC532AD758AF7.png"  transform="matrix(0.24 0 0 0.24 952.8796 428.2021)">
		</image>
	</g>
	<g>
		
			<image overflow="visible" width="317" height="317" xlink:href="ABFDC532AD758AF2.png"  transform="matrix(0.24 0 0 0.24 877.2643 258.209)">
		</image>
	</g>
	<g>
		
			<image overflow="visible" width="317" height="317" xlink:href="ABFDC532AD758ACE.png"  transform="matrix(0.24 0 0 0.24 677.9479 512.9189)">
		</image>
	</g>
	<g>
		
			<image overflow="visible" width="317" height="317" xlink:href="ABFDC532AD758ACA.png"  transform="matrix(0.24 0 0 0.24 720.7985 556.0356)">
		</image>
	</g>
	<g>
		
			<image overflow="visible" width="317" height="317" xlink:href="ABFDC532AD758AC9.png"  transform="matrix(0.24 0 0 0.24 392.3161 318.2295)">
		</image>
	</g>
	<g>
		
			<image overflow="visible" width="317" height="317" xlink:href="ABFDC532AD758A2B.png"  transform="matrix(0.24 0 0 0.24 380.2907 263.6225)">
		</image>
	</g>
	<g>
		
			<image overflow="visible" width="317" height="317" xlink:href="ABFDC532AD758A2D.png"  transform="matrix(0.24 0 0 0.24 267.3268 362.0932)">
		</image>
	</g>
	<g>
		
			<image overflow="visible" width="317" height="317" xlink:href="ABFDC532AD758A2F.png"  transform="matrix(0.24 0 0 0.24 339.9431 226.0044)">
		</image>
	</g>
	<g>
		
			<image overflow="visible" width="317" height="317" xlink:href="ABFDC532AD758A2A.png"  transform="matrix(0.24 0 0 0.24 389.7712 14.9328)">
		</image>
	</g>
	<g>
		
			<image overflow="visible" width="317" height="317" xlink:href="ABFDC532AD758A29.png"  transform="matrix(0.24 0 0 0.24 552.986 -33)">
		</image>
	</g>
	<g>
		
			<image overflow="visible" width="317" height="317" xlink:href="ABFDC532AD758A35.png"  transform="matrix(0.24 0 0 0.24 609.9831 20.2153)">
		</image>
	</g>
	<g>
		
			<image overflow="visible" width="317" height="317" xlink:href="ABFDC532AD758A37.png"  transform="matrix(0.24 0 0 0.24 644.6276 106.0698)">
		</image>
	</g>
	<g>
		
			<image overflow="visible" width="317" height="317" xlink:href="ABFDC532AD758A3A.png"  transform="matrix(0.24 0 0 0.24 714.9587 188.6643)">
		</image>
	</g>
	<g>
		
			<image overflow="visible" width="317" height="317" xlink:href="ABFDC532AD758A3B.png"  transform="matrix(0.24 0 0 0.24 777.5309 51.0835)">
		</image>
	</g>
	<g>
		
			<image overflow="visible" width="317" height="317" xlink:href="ABFDC532AD758A3D.png"  transform="matrix(0.24 0 0 0.24 334.6823 42.1604)">
		</image>
	</g>
	<g>
		
			<image overflow="visible" width="317" height="317" xlink:href="ABFDC532AD758A1A.png"  transform="matrix(0.24 0 0 0.24 304.1442 235.4848)">
		</image>
	</g>
	<g>
		
			<image overflow="visible" width="341" height="341" xlink:href="ABFDC532AD758A1D.png"  transform="matrix(0.24 0 0 0.24 440.3181 216.2964)">
		</image>
	</g>
	<g>
		
			<image overflow="visible" width="341" height="341" xlink:href="ABFDC532AD758A1E.png"  transform="matrix(0.24 0 0 0.24 842.0729 57.6819)">
		</image>
	</g>
	<g>
		
			<image overflow="visible" width="341" height="341" xlink:href="ABFDC532AD758A1C.png"  transform="matrix(0.24 0 0 0.24 340.3708 159.8689)">
		</image>
	</g>
	<g>
		
			<image overflow="visible" width="341" height="341" xlink:href="ABFDC532AD758A1B.png"  transform="matrix(0.24 0 0 0.24 291.7819 180.4985)">
		</image>
	</g>
	<g>
		
			<image overflow="visible" width="341" height="341" xlink:href="ABFDC532AD758A05.png"  transform="matrix(0.24 0 0 0.24 226.86 138.633)">
		</image>
	</g>
	<g>
		
			<image overflow="visible" width="313" height="313" xlink:href="ABFDC532AD758A06.png"  transform="matrix(0.24 0 0 0.24 162.0671 129.9111)">
		</image>
	</g>
	<g>
		
			<image overflow="visible" width="341" height="341" xlink:href="ABFDC532AD758A04.png"  transform="matrix(0.24 0 0 0.24 164.6686 253.0806)">
		</image>
	</g>
	<g>
		
			<image overflow="visible" width="317" height="317" xlink:href="ABFDC532AD758A0A.png"  transform="matrix(0.24 0 0 0.24 455.4108 552.6875)">
		</image>
	</g>
	<g>
		
			<image overflow="visible" width="317" height="317" xlink:href="ABFDC532AD758A0D.png"  transform="matrix(0.24 0 0 0.24 475.6608 618.2651)">
		</image>
	</g>
	<g>
		
			<image overflow="visible" width="317" height="317" xlink:href="ABFDC532AD758A61.png"  transform="matrix(0.24 0 0 0.24 408.9186 660.3579)">
		</image>
	</g>
	<g>
		
			<image overflow="visible" width="317" height="317" xlink:href="ABFDC532AD758A63.png"  transform="matrix(0.24 0 0 0.24 427.8796 608.7847)">
		</image>
	</g>
	<g>
		
			<image overflow="visible" width="317" height="317" xlink:href="ABFDC532AD758A60.png"  transform="matrix(0.24 0 0 0.24 436.4499 589.1411)">
		</image>
	</g>
	<g>
		
			<image overflow="visible" width="317" height="317" xlink:href="ABFDC532AD758A6F.png"  transform="matrix(0.24 0 0 0.24 357.36 609.2969)">
		</image>
	</g>
	<g>
		
			<image overflow="visible" width="317" height="317" xlink:href="ABFDC532AD758A62.png"  transform="matrix(0.24 0 0 0.24 238.4382 683.4902)">
		</image>
	</g>
	<g>
		
			<image overflow="visible" width="317" height="317" xlink:href="ABFDC532AD758A66.png"  transform="matrix(0.24 0 0 0.24 191.3122 669.8384)">
		</image>
	</g>
	<g>
		
			<image overflow="visible" width="317" height="317" xlink:href="ABFDC532AD758A67.png"  transform="matrix(0.24 0 0 0.24 68.3219 659.6489)">
		</image>
	</g>
	<g>
		
			<image overflow="visible" width="317" height="317" xlink:href="ABFDC532AD758A1F.png"  transform="matrix(0.24 0 0 0.24 184.3884 703.5195)">
		</image>
	</g>
	<g>
		
			<image overflow="visible" width="317" height="317" xlink:href="ABFDC532AD758A19.png"  transform="matrix(0.24 0 0 0.24 207.7214 723.3647)">
		</image>
	</g>
	<g>
		
			<image overflow="visible" width="317" height="317" xlink:href="ABFDC532AD758A18.png"  transform="matrix(0.24 0 0 0.24 685.6081 631.7651)">
		</image>
	</g>
	<g>
		
			<image overflow="visible" width="317" height="317" xlink:href="ABFDC532AD758A44.png"  transform="matrix(0.24 0 0 0.24 714.0495 612.8042)">
		</image>
	</g>
	<g>
		
			<image overflow="visible" width="317" height="317" xlink:href="ABFDC532AD758A39.png"  transform="matrix(0.24 0 0 0.24 788.1491 627.7456)">
		</image>
	</g>
	<g>
		
			<image overflow="visible" width="317" height="317" xlink:href="ABFDC532AD758A3C.png"  transform="matrix(0.24 0 0 0.24 774.8005 646.7065)">
		</image>
	</g>
	<g>
		
			<image overflow="visible" width="317" height="317" xlink:href="ABFDC532AD758A3F.png"  transform="matrix(0.24 0 0 0.24 856.8405 690.9321)">
		</image>
	</g>
	<g>
		
			<image overflow="visible" width="317" height="317" xlink:href="ABFDC532AD758A38.png"  transform="matrix(0.24 0 0 0.24 872.6159 719.373)">
		</image>
	</g>
	<g>
		
			<image overflow="visible" width="317" height="317" xlink:href="ABFDC532AD758A36.png"  transform="matrix(0.24 0 0 0.24 859.571 773.1367)">
		</image>
	</g>
	<g>
		
			<image overflow="visible" width="317" height="317" xlink:href="ABFDC532AD758BC4.png"  transform="matrix(0.24 0 0 0.24 756.1423 758.1958)">
		</image>
	</g>
	<g>
		
			<image overflow="visible" width="317" height="317" xlink:href="ABFDC532AD758BC7.png"  transform="matrix(0.24 0 0 0.24 747.572 831.9155)">
		</image>
	</g>
	<g>
		
			<image overflow="visible" width="317" height="317" xlink:href="ABFDC532AD758BC5.png"  transform="matrix(0.24 0 0 0.24 832.6384 991.52)">
		</image>
	</g>
	<g>
		
			<image overflow="visible" width="344" height="344" xlink:href="ABFDC532AD758BCB.png"  transform="matrix(0.24 0 0 0.24 809.6657 1055.2285)">
		</image>
	</g>
	<g>
		
			<image overflow="visible" width="317" height="317" xlink:href="ABFDC532AD758FCE.png"  transform="matrix(0.24 0 0 0.24 685.5964 873.5293)">
		</image>
	</g>
	<g>
		
			<image overflow="visible" width="317" height="317" xlink:href="ABFDC532AD758FCD.png"  transform="matrix(0.24 0 0 0.24 594.445 940.3711)">
		</image>
	</g>
	<g>
		
			<image overflow="visible" width="317" height="317" xlink:href="ABFDC532AD758FC2.png"  transform="matrix(0.24 0 0 0.24 591.4118 1005.293)">
		</image>
	</g>
	<g>
		
			<image overflow="visible" width="317" height="317" xlink:href="ABFDC532AD758FC5.png"  transform="matrix(0.24 0 0 0.24 575.485 1024.2539)">
		</image>
	</g>
	<g>
		
			<image overflow="visible" width="317" height="317" xlink:href="ABFDC532AD758FC6.png"  transform="matrix(0.24 0 0 0.24 554.6511 1058.5122)">
		</image>
	</g>
	<g>
		
			<image overflow="visible" width="317" height="317" xlink:href="ABFDC532AD758FC4.png"  transform="matrix(0.24 0 0 0.24 575.485 1094.9165)">
		</image>
	</g>
	<g>
		
			<image overflow="visible" width="317" height="317" xlink:href="ABFDC532AD758FC3.png"  transform="matrix(0.24 0 0 0.24 603.9265 1101.6079)">
		</image>
	</g>
	<g>
		
			<image overflow="visible" width="317" height="317" xlink:href="ABFDC532AD758FDD.png"  transform="matrix(0.24 0 0 0.24 541.3434 1201.9023)">
		</image>
	</g>
	<g>
		
			<image overflow="visible" width="317" height="317" xlink:href="ABFDC532AD758FDE.png"  transform="matrix(0.24 0 0 0.24 553.7819 1224.3521)">
		</image>
	</g>
	<g>
		
			<image overflow="visible" width="317" height="317" xlink:href="ABFDC532AD758FDC.png"  transform="matrix(0.24 0 0 0.24 592.1706 1180.439)">
		</image>
	</g>
	<g>
		
			<image overflow="visible" width="317" height="317" xlink:href="ABFDC532AD758FF9.png"  transform="matrix(0.24 0 0 0.24 608.8561 1194.7642)">
		</image>
	</g>
	<g>
		
			<image overflow="visible" width="317" height="317" xlink:href="ABFDC532AD758FFF.png"  transform="matrix(0.24 0 0 0.24 814.5768 1166.7529)">
		</image>
	</g>
	<g>
		
			<image overflow="visible" width="317" height="317" xlink:href="ABFDC532AD758FF8.png"  transform="matrix(0.24 0 0 0.24 853.7126 1174.9443)">
		</image>
	</g>
	<g>
		
			<image overflow="visible" width="317" height="317" xlink:href="ABFDC532AD758FFB.png"  transform="matrix(0.24 0 0 0.24 874.6452 1183.1353)">
		</image>
	</g>
	<g>
		
			<image overflow="visible" width="317" height="317" xlink:href="ABFDC532AD758FF7.png"  transform="matrix(0.24 0 0 0.24 971.6286 1264.1357)">
		</image>
	</g>
	<g>
		
			<image overflow="visible" width="317" height="317" xlink:href="ABFDC532AD758FE7.png"  transform="matrix(0.24 0 0 0.24 682.0036 1310.8301)">
		</image>
	</g>
	<g>
		
			<image overflow="visible" width="317" height="317" xlink:href="ABFDC532AD758FE9.png"  transform="matrix(0.24 0 0 0.24 656.2165 1344.2012)">
		</image>
	</g>
	<g>
		
			<image overflow="visible" width="317" height="317" xlink:href="ABFDC532AD758FEB.png"  transform="matrix(0.24 0 0 0.24 823.6784 1329.9424)">
		</image>
	</g>
	<g>
		
			<image overflow="visible" width="317" height="317" xlink:href="ABFDC532AD758FE8.png"  transform="matrix(0.24 0 0 0.24 906.8024 1172.437)">
		</image>
	</g>
	<g>
		
			<image overflow="visible" width="317" height="317" xlink:href="ABFDC532AD758FEF.png"  transform="matrix(0.24 0 0 0.24 906.3132 905.7861)">
		</image>
	</g>
	<g>
		
			<image overflow="visible" width="317" height="317" xlink:href="ABFDC532AD758F8C.png"  transform="matrix(0.24 0 0 0.24 1001.3727 856.0288)">
		</image>
	</g>
	<g>
		
			<image overflow="visible" width="317" height="317" xlink:href="ABFDC532AD758F8F.png"  transform="matrix(0.24 0 0 0.24 1057.5924 905.7861)">
		</image>
	</g>
	<g>
		
			<image overflow="visible" width="317" height="317" xlink:href="ABFDC532AD758F8D.png"  transform="matrix(0.24 0 0 0.24 1141.2301 813.4463)">
		</image>
	</g>
	<g>
		
			<image overflow="visible" width="317" height="317" xlink:href="ABFDC532AD758FB3.png"  transform="matrix(0.24 0 0 0.24 1125.4547 900.1499)">
		</image>
	</g>
	<g>
		
			<image overflow="visible" width="317" height="317" xlink:href="ABFDC532AD758FB4.png"  transform="matrix(0.24 0 0 0.24 1196.651 900.1499)">
		</image>
	</g>
	<g>
		
			<image overflow="visible" width="317" height="317" xlink:href="ABFDC532AD758FB7.png"  transform="matrix(0.24 0 0 0.24 1287.6158 789.3184)">
		</image>
	</g>
	<g>
		
			<image overflow="visible" width="317" height="317" xlink:href="ABFDC532AD758FB5.png"  transform="matrix(0.24 0 0 0.24 1211.3649 705.3423)">
		</image>
	</g>
	<g>
		
			<image overflow="visible" width="317" height="317" xlink:href="ABFDC532AD758FB2.png"  transform="matrix(0.24 0 0 0.24 1300.2535 571.5547)">
		</image>
	</g>
	<g>
		
			<image overflow="visible" width="317" height="317" xlink:href="ABFDC532AD758FBC.png"  transform="matrix(0.24 0 0 0.24 1216.2946 558.2065)">
		</image>
	</g>
	<g>
		
			<image overflow="visible" width="317" height="317" xlink:href="ABFDC532AD758FBF.png"  transform="matrix(0.24 0 0 0.24 1178.0699 536.3999)">
		</image>
	</g>
	<g>
		
			<image overflow="visible" width="317" height="317" xlink:href="ABFDC532AD758F93.png"  transform="matrix(0.24 0 0 0.24 1108.3151 574.6245)">
		</image>
	</g>
	<g>
		
			<image overflow="visible" width="305" height="305" xlink:href="ABFDC532AD758F91.png"  transform="matrix(0.24 0 0 0.24 1098.4557 523.2188)">
		</image>
	</g>
	<g>
		
			<image overflow="visible" width="305" height="305" xlink:href="ABFDC532AD758F9F.png"  transform="matrix(0.24 0 0 0.24 828.738 647.3555)">
		</image>
	</g>
	<g>
		
			<image overflow="visible" width="305" height="305" xlink:href="ABFDC532AD758F92.png"  transform="matrix(0.24 0 0 0.24 817.4411 560.9927)">
		</image>
	</g>
	<g>
		
			<image overflow="visible" width="305" height="305" xlink:href="ABFDC532AD758F95.png"  transform="matrix(0.24 0 0 0.24 787.6608 564.459)">
		</image>
	</g>
	<g>
		
			<image overflow="visible" width="305" height="305" xlink:href="ABFDC532AD758F96.png"  transform="matrix(0.24 0 0 0.24 777.0915 534.9331)">
		</image>
	</g>
	<g>
		
			<image overflow="visible" width="305" height="305" xlink:href="ABFDC532AD758F97.png"  transform="matrix(0.24 0 0 0.24 811.8015 528.1533)">
		</image>
	</g>
	<g>
		
			<image overflow="visible" width="305" height="305" xlink:href="ABFDC532AD758F8E.png"  transform="matrix(0.24 0 0 0.24 676.0407 536.5752)">
		</image>
	</g>
	<g>
		
			<image overflow="visible" width="305" height="305" xlink:href="ABFDC532AD758F89.png"  transform="matrix(0.24 0 0 0.24 1031.1403 620.3779)">
		</image>
	</g>
	<g>
		
			<image overflow="visible" width="305" height="305" xlink:href="ABFDC532AD758F8A.png"  transform="matrix(0.24 0 0 0.24 1010.2604 651.5269)">
		</image>
	</g>
	<g>
		
			<image overflow="visible" width="317" height="317" xlink:href="ABFDC532AD758F6A.png"  transform="matrix(0.24 0 0 0.24 1281.0856 523.9614)">
		</image>
	</g>
	<g>
		
			<image overflow="visible" width="317" height="317" xlink:href="ABFDC532AD758F69.png"  transform="matrix(0.24 0 0 0.24 1192.4801 705.3423)">
		</image>
	</g>
	<g>
		
			<image overflow="visible" width="317" height="317" xlink:href="ABFDC532AD758F6E.png"  transform="matrix(0.24 0 0 0.24 1221.2242 910.7163)">
		</image>
	</g>
	<g>
		
			<image overflow="visible" width="317" height="317" xlink:href="ABFDC532AD758F68.png"  transform="matrix(0.24 0 0 0.24 1228.3737 929.1118)">
		</image>
	</g>
	<g>
		
			<image overflow="visible" width="317" height="317" xlink:href="ABFDC532AD758F6B.png"  transform="matrix(0.24 0 0 0.24 1243.694 924.1821)">
		</image>
	</g>
	<g>
		
			<image overflow="visible" width="317" height="317" xlink:href="ABFDC532AD758F67.png"  transform="matrix(0.24 0 0 0.24 1256.8912 944.5732)">
		</image>
	</g>
	<g>
		
			<image overflow="visible" width="327" height="327" xlink:href="ABFDC532AD758F56.png"  transform="matrix(0.24 0 0 0.24 1085.0309 1110.6909)">
		</image>
	</g>
	<g>
		
			<image overflow="visible" width="313" height="313" xlink:href="ABFDC532AD758F59.png"  transform="matrix(0.24 0 0 0.24 1113.5475 1131.2314)">
		</image>
	</g>
	<g>
		
			<image overflow="visible" width="317" height="317" xlink:href="ABFDC532AD758F5A.png"  transform="matrix(0.24 0 0 0.24 1103.7643 957.1631)">
		</image>
	</g>
	<g>
		
			<image overflow="visible" width="317" height="317" xlink:href="ABFDC532AD758F58.png"  transform="matrix(0.24 0 0 0.24 1030.3483 1010.4805)">
		</image>
	</g>
	<g>
		
			<image overflow="visible" width="317" height="317" xlink:href="ABFDC532AD758F45.png"  transform="matrix(0.24 0 0 0.24 1015.1794 1033.5371)">
		</image>
	</g>
	<g>
		
			<image overflow="visible" width="317" height="317" xlink:href="ABFDC532AD758F3B.png"  transform="matrix(0.24 0 0 0.24 872.7282 966.6431)">
		</image>
	</g>
	<g>
		
			<image overflow="visible" width="317" height="317" xlink:href="ABFDC532AD758F3D.png"  transform="matrix(0.24 0 0 0.24 888.8073 968.9185)">
		</image>
	</g>
	<g>
		
			<image overflow="visible" width="317" height="317" xlink:href="ABFDC532AD758F3F.png"  transform="matrix(0.24 0 0 0.24 649.2048 921.4102)">
		</image>
	</g>
	<g>
		
			<image overflow="visible" width="317" height="317" xlink:href="ABFDC532AD758F3C.png"  transform="matrix(0.24 0 0 0.24 633.8591 940.3711)">
		</image>
	</g>
	<g>
		
			<image overflow="visible" width="317" height="317" xlink:href="ABFDC532AD758EC4.png"  transform="matrix(0.24 0 0 0.24 968.7849 723.0049)">
		</image>
	</g>
	<g>
		
			<image overflow="visible" width="317" height="317" xlink:href="ABFDC532AD758EC5.png"  transform="matrix(0.24 0 0 0.24 924.113 660.3579)">
		</image>
	</g>
	<g>
		
			<image overflow="visible" width="317" height="317" xlink:href="ABFDC532AD758EC7.png"  transform="matrix(0.24 0 0 0.24 896.8102 532.0542)">
		</image>
	</g>
	<g>
		
			<image overflow="visible" width="317" height="317" xlink:href="ABFDC532AD758EC3.png"  transform="matrix(0.24 0 0 0.24 734.4509 670.9072)">
		</image>
	</g>
	<g>
		
			<image overflow="visible" width="317" height="317" xlink:href="ABFDC532AD758ECB.png"  transform="matrix(0.24 0 0 0.24 642.2253 776.7773)">
		</image>
	</g>
	<g>
		
			<image overflow="visible" width="339" height="339" xlink:href="ABFDC532AD758EE0.png"  transform="matrix(0.24 0 0 0.24 661.1862 760.9263)">
		</image>
	</g>
	<g>
		
			<image overflow="visible" width="339" height="339" xlink:href="ABFDC532AD758EE3.png"  transform="matrix(0.24 0 0 0.24 287.4587 822.4351)">
		</image>
	</g>
	<g>
		
			<image overflow="visible" width="339" height="339" xlink:href="ABFDC532AD758EE1.png"  transform="matrix(0.24 0 0 0.24 546.6384 463.0141)">
		</image>
	</g>
	<g>
		
			<image overflow="visible" width="339" height="339" xlink:href="ABFDC532AD758EEF.png"  transform="matrix(0.24 0 0 0.24 650.0388 387.247)">
		</image>
	</g>
	<g>
		
			<image overflow="visible" width="339" height="339" xlink:href="ABFDC532AD758EE2.png"  transform="matrix(0.24 0 0 0.24 869.0739 385.0473)">
		</image>
	</g>
	<g>
		
			<image overflow="visible" width="339" height="339" xlink:href="ABFDC532AD758EE5.png"  transform="matrix(0.24 0 0 0.24 995.8835 313.5044)">
		</image>
	</g>
	<g>
		
			<image overflow="visible" width="339" height="339" xlink:href="ABFDC532AD758EE6.png"  transform="matrix(0.24 0 0 0.24 1008.0944 252.748)">
		</image>
	</g>
	<g>
		
			<image overflow="visible" width="339" height="339" xlink:href="ABFDC532AD758EE7.png"  transform="matrix(0.24 0 0 0.24 1176.7692 312.769)">
		</image>
	</g>
	<g>
		
			<image overflow="visible" width="339" height="339" xlink:href="ABFDC532AD758EFC.png"  transform="matrix(0.24 0 0 0.24 434.6296 375.0361)">
		</image>
	</g>
	<g>
		
			<image overflow="visible" width="339" height="339" xlink:href="ABFDC532AD758EFD.png"  transform="matrix(0.24 0 0 0.24 494.6218 450.8032)">
		</image>
	</g>
	<g>
		
			<image overflow="visible" width="339" height="339" xlink:href="ABFDC532AD759107.png"  transform="matrix(0.24 0 0 0.24 430.989 426.3818)">
		</image>
	</g>
	<g>
		
			<image overflow="visible" width="339" height="339" xlink:href="ABFDC532AD759105.png"  transform="matrix(0.24 0 0 0.24 383.7536 438.5927)">
		</image>
	</g>
	<g>
		
			<image overflow="visible" width="339" height="339" xlink:href="ABFDC532AD75911B.png"  transform="matrix(0.24 0 0 0.24 753.4118 612.8042)">
		</image>
	</g>
	<g>
		
			<image overflow="visible" width="339" height="339" xlink:href="ABFDC532AD75911D.png"  transform="matrix(0.24 0 0 0.24 844.6296 653.4561)">
		</image>
	</g>
	<g>
		
			<image overflow="visible" width="339" height="339" xlink:href="ABFDC532AD75911F.png"  transform="matrix(0.24 0 0 0.24 918.653 691.3086)">
		</image>
	</g>
	<g>
		
			<image overflow="visible" width="339" height="339" xlink:href="ABFDC532AD75911A.png"  transform="matrix(0.24 0 0 0.24 1110.5133 925.4297)">
		</image>
	</g>
	<g>
		
			<image overflow="visible" width="339" height="339" xlink:href="ABFDC532AD759119.png"  transform="matrix(0.24 0 0 0.24 1295.2672 832.5977)">
		</image>
	</g>
	<g>
		
			<image overflow="visible" width="339" height="339" xlink:href="ABFDC532AD759106.png"  transform="matrix(0.24 0 0 0.24 1259.0905 671.5068)">
		</image>
	</g>
	<g>
		
			<image overflow="visible" width="339" height="339" xlink:href="ABFDC532AD759109.png"  transform="matrix(0.24 0 0 0.24 1330.3824 640.8662)">
		</image>
	</g>
	<g>
		
			<image overflow="visible" width="339" height="339" xlink:href="ABFDC532AD75910A.png"  transform="matrix(0.24 0 0 0.24 1120.0699 719.2881)">
		</image>
	</g>
	<g>
		
			<image overflow="visible" width="339" height="339" xlink:href="ABFDC532AD759136.png"  transform="matrix(0.24 0 0 0.24 1110.5133 681.791)">
		</image>
	</g>
	<g>
		
			<image overflow="visible" width="339" height="339" xlink:href="ABFDC532AD759135.png"  transform="matrix(0.24 0 0 0.24 1233.986 541.3296)">
		</image>
	</g>
	<g>
		
			<image overflow="visible" width="339" height="339" xlink:href="ABFDC532AD75912A.png"  transform="matrix(0.24 0 0 0.24 1228.3737 949.5029)">
		</image>
	</g>
	<g>
		
			<image overflow="visible" width="339" height="339" xlink:href="ABFDC532AD75912D.png"  transform="matrix(0.24 0 0 0.24 757.0524 664.4536)">
		</image>
	</g>
</g>
</svg>
