<?xml version="1.0" encoding="utf-8"?>
<!-- Generator: Adobe Illustrator 17.1.0, SVG Export Plug-In . SVG Version: 6.00 Build 0)  -->
<!DOCTYPE svg PUBLIC "-//W3C//DTD SVG 1.1//EN" "http://www.w3.org/Graphics/SVG/1.1/DTD/svg11.dtd">
<svg version="1.1" id="Layer_1" xmlns="http://www.w3.org/2000/svg" xmlns:xlink="http://www.w3.org/1999/xlink" x="0px" y="0px"
	 viewBox="0 0 32 32" enable-background="new 0 0 32 32" xml:space="preserve">
<g>
	<path fill="#DFDDDD" d="M16,13.2c-1.6,0-2.8,1.2-2.8,2.8c0,1.6,1.2,2.8,2.8,2.8c1.6,0,2.8-1.2,2.8-2.8C18.8,14.5,17.6,13.2,16,13.2
		z"/>
	<path fill="#DFDDDD" d="M22.9,14.2c0-0.6,0-1.2-0.1-1.9c-0.1-1.9-1.3-3.1-3.2-3.2c-2.5,0-4.9,0-7.4,0c-1.9,0-3.1,1.3-3.1,3.1
		c0,2.5,0,5,0,7.4c0,1.9,1.3,3.1,3.1,3.1c2.5,0,5,0,7.4,0c1.7,0,2.8-1,3-2.7c0.2-1.4,0.1-2.8,0.2-4.2c0,0,0,0-0.1,0
		C22.9,15.4,23,14.8,22.9,14.2z M16,20.4c-2.4,0-4.4-2-4.4-4.4c0-2.4,2-4.4,4.4-4.4c2.4,0,4.3,1.9,4.3,4.4
		C20.4,18.4,18.4,20.4,16,20.4z M20.6,12.5c-0.6,0-1.1-0.5-1.1-1c0-0.6,0.5-1,1-1c0.6,0,1,0.4,1,1C21.6,12.1,21.1,12.5,20.6,12.5z"
		/>
	<path fill="#DFDDDD" d="M16,0C7.2,0,0,7.2,0,16c0,8.8,7.2,16,16,16c8.8,0,16-7.2,16-16C32,7.2,24.8,0,16,0z M24.4,20.1
		c-0.1,2.3-1.9,4.2-4.2,4.2c-2.7,0.1-5.5,0.1-8.2,0c-1.9,0-3.5-1.3-4-3.2c-0.2-0.5-0.2-1.1-0.3-1.6c0-2.4,0-4.7,0-7.1
		c0-0.2,0.1-0.4,0.1-0.5c0.2-2,1.4-3.6,3.3-4.1c0.5-0.1,1-0.2,1.5-0.3c2.4,0,4.7,0,7.1,0c0.2,0,0.4,0.1,0.5,0.1
		c2.3,0.2,4.2,1.9,4.3,4.3C24.5,14.6,24.5,17.4,24.4,20.1z"/>
</g>
</svg>
