<?xml version="1.0" encoding="utf-8"?>
<!-- Generator: Adobe Illustrator 17.1.0, SVG Export Plug-In . SVG Version: 6.00 Build 0)  -->
<!DOCTYPE svg PUBLIC "-//W3C//DTD SVG 1.1//EN" "http://www.w3.org/Graphics/SVG/1.1/DTD/svg11.dtd">
<svg version="1.1" id="Layer_1" xmlns="http://www.w3.org/2000/svg" xmlns:xlink="http://www.w3.org/1999/xlink" x="0px" y="0px"
	 viewBox="0 0 102.4 35.2" enable-background="new 0 0 102.4 35.2" xml:space="preserve">
<circle fill="#FFFFFF" cx="51.1" cy="17.6" r="11.3"/>
<path fill="none" stroke="#424241" stroke-width="0.5" stroke-miterlimit="10" d="M4.9,22.1c-2.4,0-4.4-2-4.4-4.4s2-4.4,4.4-4.4
	s4.4,2,4.4,4.4S7.3,22.1,4.9,22.1z"/>
<circle fill="none" stroke="#424241" stroke-width="0.5" stroke-miterlimit="10" cx="4.9" cy="17.6" r="2.4"/>
<path fill="none" stroke="#424241" stroke-width="0.5" stroke-miterlimit="10" d="M97.4,22.1c-2.4,0-4.4-2-4.4-4.4s2-4.4,4.4-4.4
	s4.4,2,4.4,4.4S99.8,22.1,97.4,22.1z"/>
<circle fill="none" stroke="#424241" stroke-width="0.5" stroke-miterlimit="10" cx="97.4" cy="17.6" r="2.4"/>
<path fill="none" stroke="#424241" stroke-width="0.5" stroke-miterlimit="10" d="M51.1,34.9c-9.5,0-17.2-7.7-17.2-17.2
	S41.6,0.4,51.1,0.4s17.2,7.7,17.2,17.2S60.6,34.9,51.1,34.9z"/>
<circle fill="none" stroke="#424241" stroke-width="0.5" stroke-miterlimit="10" cx="51.1" cy="17.6" r="11.3"/>
</svg>
