<?xml version="1.0" encoding="utf-8"?>
<!-- Generator: Adobe Illustrator 17.1.0, SVG Export Plug-In . SVG Version: 6.00 Build 0)  -->
<!DOCTYPE svg PUBLIC "-//W3C//DTD SVG 1.1//EN" "http://www.w3.org/Graphics/SVG/1.1/DTD/svg11.dtd">
<svg version="1.1" id="Layer_1" xmlns="http://www.w3.org/2000/svg" xmlns:xlink="http://www.w3.org/1999/xlink" x="0px" y="0px"
	 viewBox="0 0 65.2 44.3" enable-background="new 0 0 65.2 44.3" xml:space="preserve">
<circle fill="#FFFFFF" cx="35.8" cy="26.6" r="11.3"/>
<path fill="none" stroke="#424241" stroke-width="0.5" stroke-miterlimit="10" d="M5.1,42.3c-2.4,0-4.4-2-4.4-4.4s2-4.4,4.4-4.4
	s4.4,2,4.4,4.4S7.6,42.3,5.1,42.3z"/>
<circle fill="none" stroke="#424241" stroke-width="0.5" stroke-miterlimit="10" cx="5.1" cy="37.8" r="2.4"/>
<path fill="none" stroke="#424241" stroke-width="0.5" stroke-miterlimit="10" d="M60.4,9.3c-2.4,0-4.4-2-4.4-4.4s2-4.4,4.4-4.4
	s4.4,2,4.4,4.4S62.9,9.3,60.4,9.3z"/>
<circle fill="none" stroke="#424241" stroke-width="0.5" stroke-miterlimit="10" cx="60.4" cy="4.8" r="2.4"/>
<path fill="none" stroke="#424241" stroke-width="0.5" stroke-miterlimit="10" d="M35.8,43.8c-9.5,0-17.2-7.7-17.2-17.2
	S26.3,9.3,35.8,9.3s17.2,7.7,17.2,17.2S45.3,43.8,35.8,43.8z"/>
<circle fill="none" stroke="#424241" stroke-width="0.5" stroke-miterlimit="10" cx="35.8" cy="26.6" r="11.3"/>
</svg>
