<?xml version="1.0" encoding="utf-8"?>
<!-- Generator: Adobe Illustrator 17.1.0, SVG Export Plug-In . SVG Version: 6.00 Build 0)  -->
<!DOCTYPE svg PUBLIC "-//W3C//DTD SVG 1.1//EN" "http://www.w3.org/Graphics/SVG/1.1/DTD/svg11.dtd">
<svg version="1.1" id="Layer_1" xmlns="http://www.w3.org/2000/svg" xmlns:xlink="http://www.w3.org/1999/xlink" x="0px" y="0px"
	 viewBox="0 0 99.2 24.8" enable-background="new 0 0 99.2 24.8" xml:space="preserve">
<g>
	<line fill="none" stroke="#FFFFFF" stroke-width="0.5" stroke-miterlimit="10" x1="67.1" y1="12.4" x2="93.3" y2="12.4"/>
	<path fill="#FFFFFF" d="M38.5,12.4c0-6.2,5-11.2,11.2-11.2C56,1.1,61,6.2,61,12.4c0,6.2-5,11.2-11.2,11.2
		C43.5,23.6,38.5,18.6,38.5,12.4"/>
	<circle fill="none" stroke="#FFFFFF" stroke-width="0.5" stroke-miterlimit="10" cx="95.8" cy="12.4" r="2.4"/>
	<path d="M49.7,23.6c0,0-4.3-10.2,0-22.5c0,0-10.2-0.1-11.2,10.8C38.5,11.9,38.1,22.7,49.7,23.6"/>
	<line fill="none" stroke="#FFFFFF" stroke-width="0.5" stroke-miterlimit="10" x1="32.2" y1="12.4" x2="5.9" y2="12.4"/>
	<circle fill="none" stroke="#FFFFFF" stroke-width="0.5" stroke-miterlimit="10" cx="3.5" cy="12.4" r="2.4"/>
	<circle fill="none" stroke="#000000" stroke-width="0.5" stroke-miterlimit="10" cx="49.7" cy="12.4" r="11.2"/>
</g>
</svg>
