<?xml version="1.0" encoding="UTF-8"?>
<svg width="100px" height="100px" viewBox="0 0 100 100" version="1.1" xmlns="http://www.w3.org/2000/svg" xmlns:xlink="http://www.w3.org/1999/xlink">
    <!-- Generator: Sketch 44.1 (41455) - http://www.bohemiancoding.com/sketch -->
    <title>about</title>
    <desc>Created with Sketch.</desc>
    <defs></defs>
    <g id="Page-1" stroke="none" stroke-width="1" fill="none" fill-rule="evenodd">
        <g id="Artboard" transform="translate(-330.000000, -50.000000)" fill-rule="nonzero" fill="#DFDDDD">
            <g id="Group" transform="translate(380.000000, 100.500000) rotate(-90.000000) translate(-380.000000, -100.500000) translate(374.000000, 73.000000)">
                <path d="M1.5,8.8 L1.7,7.1 L3.8,6.6 L4.1,3.1 L2.1,2.2 L2.3,0.5 L10.7,4.5 L10.5,6.6 L1.5,8.8 Z M9.2,5.3 L5.5,3.6 L5.3,6.2 L9.2,5.3 Z" id="Shape"></path>
                <path d="M3.5,19.5 C2.1,19.4 1,18.5 1.1,16 L1.2,12.6 L9.9,13 L9.8,16.3 C9.7,18.7 8.7,19.4 7.4,19.4 C6.5,19.4 5.9,18.8 5.6,17.8 C5.3,18.9 4.6,19.5 3.5,19.5 Z M4.9,16 C4.9,16 5,14.4 5,14.4 L2.6,14.3 C2.6,14.3 2.5,15.9 2.5,16 C2.5,17.1 2.8,17.7 3.6,17.8 C4.5,17.8 4.9,17.1 4.9,16 Z M8.5,16.2 C8.5,16.1 8.6,14.6 8.6,14.6 L6.2,14.5 C6.2,14.5 6.1,15.9 6.1,16 C6.1,17.1 6.5,17.7 7.2,17.7 C8.1,17.7 8.5,17.2 8.5,16.2 Z" id="Shape"></path>
                <path d="M0.8,27.9 C0.8,25.3 2.4,23.4 5.3,23.4 C8,23.4 9.9,25.3 10,27.9 C10,30.5 8.4,32.4 5.5,32.4 C2.8,32.4 0.8,30.5 0.8,27.9 Z M8.5,27.8 C8.5,26.1 7.2,25.1 5.3,25.1 C3.4,25.1 2.1,26.2 2.1,27.9 C2.1,29.6 3.4,30.6 5.3,30.6 C7.3,30.6 8.6,29.5 8.5,27.8 Z" id="Shape"></path>
                <path d="M1.3,40.3 C1.2,38.1 2.3,36.6 4.6,36.4 L10,36 L10.1,37.7 L4.9,38 C3.5,38.1 2.7,38.8 2.8,40.1 C2.9,41.3 3.6,42 5.1,41.9 C5,41.9 10.4,41.6 10.4,41.6 L10.5,43.3 C10.5,43.3 5.3,43.6 5.2,43.6 C2.8,43.8 1.4,42.6 1.3,40.3 Z" id="Shape"></path>
                <polygon id="Shape" points="9.8 51.6 2.6 52.4 2.4 50.7 9.6 49.9 9.3 47 10.8 46.8 11.7 54.3 10.2 54.5"></polygon>
            </g>
        </g>
    </g>
</svg>