<?xml version="1.0" encoding="UTF-8"?>
<svg width="100px" height="100px" viewBox="0 0 100 100" version="1.1" xmlns="http://www.w3.org/2000/svg" xmlns:xlink="http://www.w3.org/1999/xlink">
    <!-- Generator: Sketch 44.1 (41455) - http://www.bohemiancoding.com/sketch -->
    <title>home</title>
    <desc>Created with Sketch.</desc>
    <defs></defs>
    <g id="Page-1" stroke="none" stroke-width="1" fill="none" fill-rule="evenodd">
        <g id="Artboard" transform="translate(-450.000000, -50.000000)" fill-rule="nonzero" fill="#DFDDDD">
            <g id="Group" transform="translate(477.000000, 94.000000)">
                <polygon id="Shape" points="6.2 10.2 6.5 6.5 2.4 6.1 2.1 9.8 0.4 9.6 1.2 0.9 2.9 1.1 2.6 4.7 6.7 5.1 7 1.5 8.7 1.7 7.9 10.4"></polygon>
                <path d="M16.6,11 C14,10.9 12.2,9.1 12.3,6.3 C12.4,3.6 14.4,1.8 17,1.9 C19.6,2 21.4,3.8 21.3,6.6 C21.2,9.2 19.2,11.1 16.6,11 Z M16.9,3.3 C15.2,3.2 14.1,4.4 14,6.3 C13.9,8.2 15,9.5 16.7,9.6 C18.4,9.7 19.5,8.4 19.6,6.6 C19.7,4.6 18.6,3.3 16.9,3.3 Z" id="Shape"></path>
                <polygon id="Shape" points="33.3 3.8 31.2 10.7 29.4 10.7 26.9 3.9 27 10.9 25.4 10.9 25.5 2.1 27.9 2 30.3 8.8 32.4 1.9 34.7 1.8 35.2 10.5 33.5 10.5"></polygon>
                <polygon id="Shape" points="39.7 10.5 39 1.8 44.9 1.3 45 2.7 40.7 3 40.9 5.2 44.4 4.9 44.5 6.3 41 6.6 41.2 8.8 45.5 8.5 45.6 9.9"></polygon>
            </g>
        </g>
    </g>
</svg>