<?xml version="1.0" encoding="UTF-8"?>
<svg width="100px" height="100px" viewBox="0 0 100 100" version="1.1" xmlns="http://www.w3.org/2000/svg" xmlns:xlink="http://www.w3.org/1999/xlink">
    <!-- Generator: Sketch 44.1 (41455) - http://www.bohemiancoding.com/sketch -->
    <title>services</title>
    <desc>Created with Sketch.</desc>
    <defs></defs>
    <g id="Page-1" stroke="none" stroke-width="1" fill="none" fill-rule="evenodd">
        <g id="Artboard" transform="translate(-570.000000, -50.000000)" fill-rule="nonzero" fill="#DFDDDD">
            <g id="Group" transform="translate(620.500000, 100.500000) rotate(90.000000) translate(-620.500000, -100.500000) translate(614.000000, 62.000000)">
                <path d="M7.6,72 C6.9,71.9 6.5,72.5 6,73.7 C5.5,74.9 4.7,76.2 3,76 C1.5,75.8 0.6,74.4 0.9,72.5 C1.1,71.3 1.5,70.4 2.1,69.6 L3.5,70.2 C2.9,70.9 2.5,71.8 2.4,72.6 C2.2,73.6 2.6,74.1 3.2,74.2 C3.9,74.3 4.3,73.6 4.8,72.4 C5.4,71.2 6.2,69.9 7.8,70.2 C9.4,70.4 10.3,71.9 10,73.9 C9.8,75 9.3,76.1 8.7,76.9 L7.3,76.3 C7.9,75.6 8.4,74.7 8.6,73.7 C8.7,72.9 8.3,72.2 7.6,72 Z" id="Shape"></path>
                <polygon id="Shape" points="10.8 66.5 2.1 65.5 2.8 59.6 4.2 59.8 3.7 64.1 5.9 64.3 6.3 60.8 7.7 61 7.3 64.5 9.5 64.7 10 60.4 11.4 60.6"></polygon>
                <path d="M12,54.3 L11.9,56 L3.2,55.4 C3.2,55.4 3.4,52.3 3.4,52.3 C3.5,50.1 4.7,49 6.3,49.1 C7.5,49.2 8.4,49.9 8.7,51.2 L12.4,49.1 L12.3,51 L9,52.7 L9,54 L12,54.3 Z M7.6,52.8 C7.6,51.7 7.2,51 6.2,51 C5.3,50.9 4.8,51.6 4.7,52.8 C4.7,52.8 4.6,53.9 4.6,53.9 L7.4,54.1 L7.6,52.8 Z" id="Shape"></path>
                <polygon id="Shape" points="12.5 41.1 12.5 43.2 3.7 46.1 3.7 44.3 10.8 42 3.8 39.5 3.8 37.7"></polygon>
                <polygon id="Shape" points="12.5 34.2 3.8 34.4 3.8 32.7 12.5 32.5"></polygon>
                <path d="M5.2,21.7 C4.8,22.4 4.6,23.2 4.6,24 C4.7,25.7 5.9,26.8 7.8,26.7 C9.7,26.6 10.9,25.4 10.8,23.6 C10.7,22.7 10.4,21.9 9.9,21.3 L11.4,20.9 C11.9,21.6 12.2,22.6 12.3,23.6 C12.5,26.3 10.9,28.2 8,28.4 C5.2,28.6 3.3,26.8 3.1,24.1 C3,23.1 3.2,22 3.6,21.2 L5.2,21.7 Z" id="Shape"></path>
                <polygon id="Shape" points="11.6 16.6 2.9 17.5 2.3 11.6 3.7 11.4 4.2 15.7 6.4 15.5 6 12 7.4 11.8 7.8 15.3 10 15.1 9.5 10.8 10.9 10.6"></polygon>
                <path d="M7.4,2.5 C6.7,2.6 6.5,3.3 6.4,4.6 C6.2,5.9 5.9,7.4 4.2,7.7 C2.7,7.9 1.5,6.9 1.2,5 C1,3.8 1.2,2.8 1.5,1.9 L3,2.1 C2.7,2.9 2.5,3.9 2.6,4.8 C2.8,5.8 3.3,6.2 3.8,6.1 C4.5,6 4.7,5.2 4.8,3.9 C5,2.5 5.4,1.1 7,0.9 C8.6,0.7 9.9,1.7 10.2,3.8 C10.4,4.9 10.2,6.1 9.9,7 L8.4,6.8 C8.8,5.9 9,5 8.8,3.9 C8.6,3 8.1,2.4 7.4,2.5 Z" id="Shape"></path>
            </g>
        </g>
    </g>
</svg>