<?xml version="1.0" encoding="utf-8"?>
<!-- Generator: Adobe Illustrator 17.1.0, SVG Export Plug-In . SVG Version: 6.00 Build 0)  -->
<!DOCTYPE svg PUBLIC "-//W3C//DTD SVG 1.1//EN" "http://www.w3.org/Graphics/SVG/1.1/DTD/svg11.dtd">
<svg version="1.1" id="Layer_1" xmlns="http://www.w3.org/2000/svg" xmlns:xlink="http://www.w3.org/1999/xlink" x="0px" y="0px"
	 viewBox="0 0 51.9 53.1" enable-background="new 0 0 51.9 53.1" xml:space="preserve">
<g>
	<g>
		<path fill="#AAAAAA" d="M26.4,52.2c-13.5,0-24.4-11-24.4-24.4c0-13.5,11-24.4,24.4-24.4c13.5,0,24.4,11,24.4,24.4
			C50.8,41.2,39.8,52.2,26.4,52.2z M26.4,3.8C13.2,3.8,2.4,14.6,2.4,27.8s10.7,23.9,23.9,23.9S50.3,41,50.3,27.8S39.6,3.8,26.4,3.8z
			"/>
	</g>
	<g>
		<path fill="#AAAAAA" d="M26.4,40.2c-6.9,0-12.4-5.6-12.4-12.4c0-6.9,5.6-12.4,12.4-12.4c6.9,0,12.4,5.6,12.4,12.4
			C38.8,34.6,33.2,40.2,26.4,40.2z M26.4,15.8c-6.6,0-11.9,5.4-11.9,11.9c0,6.6,5.4,11.9,11.9,11.9c6.6,0,11.9-5.4,11.9-11.9
			C38.3,21.2,32.9,15.8,26.4,15.8z"/>
	</g>
	<g>
		<path fill="#1E1E1E" d="M28.8,3.6c0,1.3-1.1,2.4-2.4,2.4c-1.3,0-2.4-1.1-2.4-2.4c0-1.3,1.1-2.4,2.4-2.4
			C27.7,1.1,28.8,2.2,28.8,3.6"/>
	</g>
	<path fill="#1E1E1E" d="M45.6,45.8c0,1.3-1.1,2.4-2.4,2.4c-1.3,0-2.4-1.1-2.4-2.4c0-1.3,1.1-2.4,2.4-2.4
		C44.5,43.3,45.6,44.4,45.6,45.8"/>
	<g>
		<path fill="#AAAAAA" d="M26.4,6.3c-1.5,0-2.7-1.2-2.7-2.7c0-1.5,1.2-2.7,2.7-2.7c1.5,0,2.7,1.2,2.7,2.7
			C29.1,5.1,27.8,6.3,26.4,6.3z M26.4,1.4c-1.2,0-2.2,1-2.2,2.2s1,2.2,2.2,2.2c1.2,0,2.2-1,2.2-2.2S27.6,1.4,26.4,1.4z"/>
	</g>
	<g>
		<path fill="#1E1E1E" d="M5.4,32.6c0,1.3-1.1,2.4-2.4,2.4c-1.3,0-2.4-1.1-2.4-2.4c0-1.3,1.1-2.4,2.4-2.4
			C4.3,30.2,5.4,31.3,5.4,32.6"/>
	</g>
	<g>
		<path fill="#AAAAAA" d="M2.9,35.3c-1.5,0-2.7-1.2-2.7-2.7c0-1.5,1.2-2.7,2.7-2.7c1.5,0,2.7,1.2,2.7,2.7
			C5.6,34.1,4.4,35.3,2.9,35.3z M2.9,30.5c-1.2,0-2.2,1-2.2,2.2c0,1.2,1,2.2,2.2,2.2c1.2,0,2.2-1,2.2-2.2
			C5.1,31.4,4.1,30.5,2.9,30.5z"/>
	</g>
	<g>
		<path fill="#AAAAAA" d="M43.2,48.5c-1.5,0-2.7-1.2-2.7-2.7c0-1.5,1.2-2.7,2.7-2.7c1.5,0,2.7,1.2,2.7,2.7
			C45.9,47.2,44.7,48.5,43.2,48.5z M43.2,43.6c-1.2,0-2.2,1-2.2,2.2c0,1.2,1,2.2,2.2,2.2c1.2,0,2.2-1,2.2-2.2
			C45.4,44.6,44.4,43.6,43.2,43.6z"/>
	</g>
</g>
</svg>
