<?xml version="1.0" encoding="utf-8"?>
<!-- Generator: Adobe Illustrator 17.1.0, SVG Export Plug-In . SVG Version: 6.00 Build 0)  -->
<!DOCTYPE svg PUBLIC "-//W3C//DTD SVG 1.1//EN" "http://www.w3.org/Graphics/SVG/1.1/DTD/svg11.dtd">
<svg version="1.1" id="Layer_1" xmlns="http://www.w3.org/2000/svg" xmlns:xlink="http://www.w3.org/1999/xlink" x="0px" y="0px"
	 viewBox="0 0 97.7 23" enable-background="new 0 0 97.7 23" xml:space="preserve">
<g>
	<rect x="66.3" y="11.2" fill="#434342" width="26.2" height="0.5"/>
</g>
<g>
	<circle fill="#434342" cx="49" cy="11.5" r="11.3"/>
</g>
<g>
	<path fill="#434342" d="M95,14.2c-1.5,0-2.7-1.2-2.7-2.7s1.2-2.7,2.7-2.7s2.7,1.2,2.7,2.7S96.5,14.2,95,14.2z M95,9.3
		c-1.2,0-2.2,1-2.2,2.2s1,2.2,2.2,2.2s2.2-1,2.2-2.2S96.2,9.3,95,9.3z"/>
</g>
<g>
	<path fill="#FFFFFF" d="M49,0.2c0,0-1.9,0.9-4.1,4.2C41.7,9.1,41.4,18,49,22.8c0,0,10.2,0.1,11.3-10.8C60.2,12,60.6,1.2,49,0.2z"/>
</g>
<g>
	<rect x="5.1" y="11.2" fill="#434342" width="26.2" height="0.5"/>
</g>
<g>
	<path fill="#434342" d="M2.7,14.2C1.2,14.2,0,13,0,11.5s1.2-2.7,2.7-2.7s2.7,1.2,2.7,2.7S4.2,14.2,2.7,14.2z M2.7,9.3
		c-1.2,0-2.2,1-2.2,2.2s1,2.2,2.2,2.2s2.2-1,2.2-2.2S3.9,9.3,2.7,9.3z"/>
</g>
<g>
	<path fill="#434342" d="M49,23c-6.3,0-11.5-5.2-11.5-11.5S42.6,0,49,0s11.5,5.2,11.5,11.5S55.3,23,49,23z M49,0.5
		c-6.1,0-11,4.9-11,11s4.9,11,11,11s11-4.9,11-11S55,0.5,49,0.5z"/>
</g>
</svg>
